<svg width="158" height="158" viewBox="0 0 158 158" fill="none" xmlns="http://www.w3.org/2000/svg">
<circle cx="88.0169" cy="69.9837" r="69.9837" fill="#FFF9E6"/>
<g clip-path="url(#clip0_210_2076)">
<path d="M0.306286 19.75C0.306286 19.75 -1.62429 103.827 4.17766 157.056H119.359C119.359 157.056 100.002 56.6557 100.962 19.75H0.306286Z" fill="#107393"/>
<path d="M13.5449 43.2338V69.5162H63.9953L61.9421 38.7598L13.5449 43.2338Z" fill="#A9CBDA"/>
<path d="M70.9607 93.6328C82.5143 93.6328 91.8804 85.2043 91.8804 74.8071C91.8804 64.41 82.5143 55.9814 70.9607 55.9814C59.4071 55.9814 50.041 64.41 50.041 74.8071C50.041 85.2043 59.4071 93.6328 70.9607 93.6328Z" fill="#D9E0A2"/>
<path d="M75.0363 61.7016L59.7142 86.2169C59.7142 86.2169 50.2656 77.3607 56.7213 67.3503C63.177 57.3399 75.0363 61.7016 75.0363 61.7016Z" fill="#107393"/>
<path d="M79.3162 63.0605L63.9941 88.4032C63.9941 88.4032 75.0362 95.1858 83.4021 84.1028C91.7679 73.0199 79.3162 63.0605 79.3162 63.0605Z" fill="#107393"/>
<path d="M63.9949 64.3574V69.4648L57.7129 69.2298C58.3131 67.988 59.1925 66.902 60.2823 66.0567C61.3722 65.2114 62.6429 64.6298 63.9949 64.3574V64.3574Z" fill="#A9CBDA"/>
<path d="M15.1582 82.5088V88.4027L44.2803 85.4608V82.5088H15.1582Z" fill="#A9CBDA"/>
<path d="M15.1582 96.248V99.7415H76.2727L15.1582 96.248Z" fill="#A9CBDA"/>
<path d="M15.1582 107.321V112.653L101.094 109.987V103.021L15.1582 107.321Z" fill="#A9CBDA"/>
<path d="M12.6973 119.425V124.961L105.804 122.193V116.963L12.6973 119.425Z" fill="#A9CBDA"/>
<path d="M13.5449 129.681V133.981L105.804 131.836V128.036L13.5449 129.681Z" fill="#A9CBDA"/>
<path d="M66.0176 136.851V149.568H112.985L108.878 133.98L66.0176 136.851Z" fill="#A9CBDA"/>
</g>
<defs>
<clipPath id="clip0_210_2076">
<rect width="119.359" height="137.306" fill="white" transform="translate(0 19.75)"/>
</clipPath>
</defs>
</svg>
