<svg width="1440" height="373" viewBox="0 0 1440 373" fill="none" xmlns="http://www.w3.org/2000/svg">
<mask id="mask0_383_2356" style="mask-type:alpha" maskUnits="userSpaceOnUse" x="0" y="0" width="1440" height="373">
<rect x="0.5" y="0.5" width="1439" height="372" fill="#D9D9D9" stroke="black"/>
</mask>
<g mask="url(#mask0_383_2356)">
<ellipse cx="121.793" cy="251.561" rx="42.063" ry="40.7742" transform="rotate(-2.48788 121.793 251.561)" fill="#FFF9E6"/>
<ellipse cx="1163.1" cy="181.905" rx="172.816" ry="174.261" transform="rotate(-2.48788 1163.1 181.905)" fill="#FFF9E6"/>
<path d="M1140.03 8.48318L110.637 212.242L114.085 291.609L1154.66 345.208L1140.03 8.48318Z" fill="#FFF9E6"/>
<g clip-path="url(#clip0_383_2356)">
<path d="M131.16 372.453L150.619 263.004L134.86 234.227L131.16 211.068L167.356 199.019L170.918 153H181.354V201.443L190.505 231.585L178.505 263.004L177.872 372.453H131.16Z" fill="#FFE4BF"/>
<path d="M25.9277 372.626L47.3349 279.4L42.2007 254.995L82.8882 216.88L103.286 228.869L96.1638 231.442H81.6022L68.3266 254.995L87.7948 274.691H96.1638V281.121L71.3141 286.691L73.6982 372.626H25.9277Z" fill="#FFE4BF"/>
<path d="M87.7949 233.578V274.691L168.438 269.982L164.689 223.726L87.7949 233.578Z" fill="#107393"/>
<path d="M111.764 231.758V215.702H130.094L138.572 229.561L111.764 231.758Z" fill="#107393"/>
<path d="M125.169 267.727C136.506 267.727 145.696 260.268 145.696 251.068C145.696 241.868 136.506 234.409 125.169 234.409C113.833 234.409 104.643 241.868 104.643 251.068C104.643 260.268 113.833 267.727 125.169 267.727Z" fill="#D9E0A2"/>
<path d="M125.169 265.155C132.949 265.155 139.256 258.848 139.256 251.068C139.256 243.288 132.949 236.981 125.169 236.981C117.389 236.981 111.082 243.288 111.082 251.068C111.082 258.848 117.389 265.155 125.169 265.155Z" fill="#107393"/>
<path d="M125.168 261.128C130.724 261.128 135.229 256.624 135.229 251.067C135.229 245.511 130.724 241.007 125.168 241.007C119.612 241.007 115.107 245.511 115.107 251.067C115.107 256.624 119.612 261.128 125.168 261.128Z" fill="#D9E0A2"/>
<path d="M115.107 220.817L116.235 228.661H130.728L128.838 219.046L115.107 220.817Z" fill="#D9E0A2"/>
</g>
</g>
<path d="M204 296L1139 355L1111 259L1059 224H656L204 296Z" fill="#FFF9E6"/>
<defs>
<clipPath id="clip0_383_2356">
<rect width="244.58" height="219.453" fill="white" transform="translate(-53 153)"/>
</clipPath>
</defs>
</svg>
