<svg width="239" height="100" viewBox="0 0 239 100" fill="none" xmlns="http://www.w3.org/2000/svg">
<path d="M0 15C0 6.71573 6.71573 0 15 0H224C232.284 0 239 6.71573 239 15V55C239 63.2843 232.284 70 224 70H15C6.71572 70 0 63.2843 0 55V15Z" fill="#EAF3BF"/>
<path d="M38.45 39.95V42.075H50.125V39.95H38.45ZM37.875 28.05V30.225H50.375V28.05H37.875ZM42.85 26.275V44.2H45.55V26.275H42.85ZM37.75 43.925L38.1 46.425C41.35 46.125 45.9 45.675 50.15 45.225L50.125 42.95C45.625 43.35 40.85 43.7 37.75 43.925ZM40.925 35.95H47.525V37.1H40.925V35.95ZM40.925 33.075H47.525V34.2H40.925V33.075ZM38.525 31.2V38.975H50V31.2H38.525ZM48.775 23.9C46.025 24.5 41.675 24.95 37.95 25.125C38.225 25.7 38.5 26.65 38.6 27.25C42.35 27.175 46.9 26.8 50.1 26.15L48.775 23.9ZM50.375 29.425V32.175H59.025V29.425H50.375ZM57.825 29.425V30.075C57.625 39.75 57.425 43.275 56.85 44.025C56.625 44.375 56.375 44.45 56 44.45C55.5 44.45 54.55 44.45 53.475 44.35C53.95 45.15 54.275 46.375 54.35 47.2C55.525 47.25 56.7 47.25 57.475 47.1C58.3 46.95 58.875 46.675 59.425 45.825C60.25 44.7 60.45 41.05 60.675 30.75C60.675 30.4 60.7 29.425 60.7 29.425H57.825ZM52.775 24.2C52.75 34.175 53.025 41.175 47.75 45.2C48.425 45.7 49.4 46.725 49.825 47.45C55.6 42.9 55.625 34.875 55.65 24.2H52.775ZM86.55 23.725C82.45 24.825 75.55 25.475 69.525 25.725C69.8 26.375 70.175 27.6 70.25 28.35C76.375 28.15 83.575 27.525 88.725 26.2L86.55 23.725ZM69.75 30.825V33.7H89.525V30.825H69.75ZM68.025 36.65V39.575H91V36.65H68.025ZM77.975 27.25V43.625C77.975 44.125 77.75 44.3 77.175 44.3C76.6 44.3 74.5 44.325 72.65 44.25C73.1 45.025 73.675 46.375 73.875 47.225C76.425 47.25 78.25 47.175 79.45 46.7C80.65 46.25 81.1 45.45 81.1 43.675V27.25H77.975ZM100.15 43.225V45.95H108.55V43.225H100.15ZM102.9 26.775V38.375H105.825V25.675L102.9 26.775ZM98.625 36.75V46.85H101.45V39.45H107.3V46.75H110.25V36.75H98.625ZM97.725 30.65V33.475H111.025V30.65H97.725ZM108.075 23.825C105.625 24.85 101.475 25.625 97.725 26.05C98.075 26.7 98.45 27.75 98.575 28.425C102.5 28.075 107.075 27.325 110.275 26.025L108.075 23.825ZM112.15 26.4V40.525H115.05V26.4H112.15ZM117.225 24.175V43.5C117.225 43.975 117.025 44.125 116.575 44.125C116.05 44.125 114.45 44.125 112.85 44.075C113.275 44.9 113.75 46.3 113.9 47.175C116.15 47.175 117.775 47.075 118.825 46.6C119.825 46.1 120.2 45.275 120.2 43.525V24.175H117.225ZM130.15 43.225V45.95H138.55V43.225H130.15ZM132.9 26.775V38.375H135.825V25.675L132.9 26.775ZM128.625 36.75V46.85H131.45V39.45H137.3V46.75H140.25V36.75H128.625ZM127.725 30.65V33.475H141.025V30.65H127.725ZM138.075 23.825C135.625 24.85 131.475 25.625 127.725 26.05C128.075 26.7 128.45 27.75 128.575 28.425C132.5 28.075 137.075 27.325 140.275 26.025L138.075 23.825ZM142.15 26.4V40.525H145.05V26.4H142.15ZM147.225 24.175V43.5C147.225 43.975 147.025 44.125 146.575 44.125C146.05 44.125 144.45 44.125 142.85 44.075C143.275 44.9 143.75 46.3 143.9 47.175C146.15 47.175 147.775 47.075 148.825 46.6C149.825 46.1 150.2 45.275 150.2 43.525V24.175H147.225ZM163.325 34.825V47.325H166.2V37.1H175.25V47.325H178.275V34.825H163.325ZM158.35 31.425V33.775H180.625V31.425H158.35ZM160.1 28.075V30.35H179.25V28.075H160.1ZM165.275 38.15V40.05H176.475V38.15H165.275ZM165.275 41.125V43H176.475V41.125H165.275ZM164.925 44.15V46.425H176.475V44.15H164.925ZM177.425 23.85C173.2 24.55 165.95 24.85 159.825 24.85C160.075 25.45 160.35 26.45 160.4 27.1C166.6 27.15 174.05 26.85 179.175 26L177.425 23.85ZM166.775 25.925C165.6 31.325 162.85 36.825 157.55 39.675C158.15 40.25 159.025 41.375 159.425 42.05C165.2 38.725 168.2 32.775 169.9 26.55L166.775 25.925ZM198.2 38.575H200.775L201.425 30.025L201.55 26.3H197.425L197.55 30.025L198.2 38.575ZM199.5 45.25C200.75 45.25 201.7 44.325 201.7 43.025C201.7 41.725 200.75 40.825 199.5 40.825C198.225 40.825 197.275 41.725 197.275 43.025C197.275 44.325 198.2 45.25 199.5 45.25Z" fill="#5B5B5B"/>
<path d="M40 100L54 59L91 65.8333L40 100Z" fill="#EAF3BF"/>
</svg>
