<svg width="400" height="300" viewBox="0 0 400 300" fill="none" xmlns="http://www.w3.org/2000/svg">
<mask id="mask0_301_3548" style="mask-type:alpha" maskUnits="userSpaceOnUse" x="0" y="0" width="400" height="300">
<rect x="0.5" y="0.5" width="399" height="299" fill="#D9D9D9" stroke="black"/>
</mask>
<g mask="url(#mask0_301_3548)">
<rect width="408.347" height="304.004" transform="matrix(1 1.96918e-05 -0.00217975 0.999998 -7.59863 -4.50391)" fill="#DEF4FF"/>
<path d="M36.5572 74.875C35.2572 78.475 33.0822 82.1 30.7822 84.4C31.2822 85.125 32.1072 86.775 32.3822 87.5C35.1322 84.6 37.7572 80.05 39.3822 75.75L36.5572 74.875ZM34.2572 81.775V98.225H37.1822V78.875V78.85L34.2572 81.775ZM38.4322 83.075V86.025H54.1822V83.075H38.4322ZM44.8822 75.15V98.25H48.0072V75.15H44.8822ZM65.7572 95.275L65.9572 97.725C70.0322 97.65 76.1072 97.45 81.7822 97.25L81.8822 95C76.0322 95.15 69.7572 95.25 65.7572 95.275ZM77.3322 88.925C75.1572 91.125 71.5822 93.925 68.7572 95.625L70.6572 96.9C73.4822 95.3 77.0822 92.675 79.8322 90.3L77.3322 88.925ZM72.5572 87.475C71.6822 88.65 70.1572 90.225 68.9572 91.2L70.7822 92.3C72.0322 91.425 73.5822 90.05 74.9822 88.75L72.5572 87.475ZM66.8322 91.275C68.5822 92.275 70.8572 93.85 71.9072 94.9L73.9322 92.95C72.7572 91.9 70.4322 90.45 68.7072 89.525L66.8322 91.275ZM77.2822 93.15C78.9072 94.7 80.7822 96.875 81.6322 98.3L84.1572 97.025C83.2322 95.55 81.2572 93.475 79.6322 92.025L77.2822 93.15ZM66.3572 80.625V82.675H74.1572V80.625H66.3572ZM74.8572 80.625V82.675H83.5572V80.625H74.8572ZM69.1322 79.15V88.075H71.3322V79.15H69.1322ZM72.1572 83.25V86.95H73.8072V83.25H72.1572ZM77.6322 79.15V88.25H79.8572V79.15H77.6322ZM66.7322 83.225V84.175C66.7322 85.175 66.5822 86.55 65.6572 87.4C66.1072 87.65 66.7822 88.15 67.0822 88.525C68.1822 87.3 68.3322 85.65 68.3322 84.25V83.225H66.7322ZM75.1822 83.225V84.125C75.1822 85.075 75.0322 86.4 74.0572 87.2C74.5072 87.45 75.2072 87.975 75.5072 88.35C76.6572 87.175 76.8322 85.55 76.8322 84.225V83.225H75.1822ZM80.6822 83.2V85.95C80.6822 87.05 80.7822 87.425 81.0572 87.75C81.3072 88.025 81.7822 88.15 82.2072 88.15C82.4072 88.15 82.7572 88.15 82.9822 88.15C83.2322 88.15 83.5572 88.125 83.7572 88C84.0322 87.875 84.2322 87.7 84.3572 87.425C84.5072 87.175 84.5572 86.5 84.6072 85.875C84.1822 85.75 83.6072 85.45 83.2822 85.2C83.2822 85.725 83.2572 86.15 83.2072 86.35C83.1572 86.525 83.1322 86.625 83.0572 86.675C83.0322 86.7 82.9322 86.725 82.8572 86.725C82.7572 86.725 82.6822 86.725 82.6322 86.725C82.5322 86.725 82.4822 86.675 82.4322 86.625C82.4322 86.55 82.4322 86.375 82.4322 86.075V83.2H80.6822ZM71.8822 74.775V78H75.0072V74.775H71.8822ZM64.2822 76.725V79.225H84.0572V76.725H64.2822ZM62.5572 76.725V84.325C62.5572 87.975 62.4322 93.1 60.7322 96.625C61.3322 96.925 62.5572 97.85 63.0322 98.35C64.9822 94.475 65.3072 88.325 65.3072 84.325V76.725H62.5572ZM94.9822 87.25C95.9322 86.8167 96.6489 86.3417 97.1322 85.825C97.6322 85.2917 97.9739 84.7167 98.1572 84.1C98.3406 83.4833 98.4322 82.8333 98.4322 82.15C98.4322 81.6 98.3656 81.1333 98.2322 80.75C98.0989 80.35 97.8989 80.0417 97.6322 79.825C97.3822 79.6083 97.0572 79.5 96.6572 79.5C96.2406 79.5 95.8906 79.6417 95.6072 79.925C95.3406 80.1917 95.1406 80.5833 95.0072 81.1C94.8906 81.6167 94.8322 82.25 94.8322 83C93.6322 83 92.6906 82.8583 92.0072 82.575C91.3239 82.275 90.9822 81.7667 90.9822 81.05C90.9822 80.6333 91.0906 80.2417 91.3072 79.875C91.5239 79.4917 91.8572 79.1583 92.3072 78.875C92.7572 78.575 93.3322 78.3417 94.0322 78.175C94.7489 77.9917 95.5906 77.9 96.5572 77.9C97.8239 77.9 98.9322 78.0833 99.8822 78.45C100.832 78.8167 101.574 79.35 102.107 80.05C102.641 80.7333 102.907 81.5583 102.907 82.525C102.907 83.4083 102.724 84.1667 102.357 84.8C102.007 85.4333 101.466 86 100.732 86.5C99.9989 87 99.0656 87.4917 97.9322 87.975L97.4572 90.175H95.4572L94.9822 87.25ZM96.4072 96.225C95.7906 96.225 95.2656 96.0667 94.8322 95.75C94.4156 95.4333 94.2072 94.8667 94.2072 94.05C94.2072 93.2167 94.4156 92.65 94.8322 92.35C95.2656 92.0333 95.7906 91.875 96.4072 91.875C97.0072 91.875 97.5239 92.0333 97.9572 92.35C98.4072 92.65 98.6322 93.2167 98.6322 94.05C98.6322 94.8667 98.4072 95.4333 97.9572 95.75C97.5239 96.0667 97.0072 96.225 96.4072 96.225Z" fill="#5B5B5B"/>
<path d="M37.824 120.696C37.008 124.032 35.544 127.344 33.72 129.408C34.368 129.84 35.52 130.776 36.024 131.28C37.944 128.904 39.648 125.136 40.656 121.344L37.824 120.696ZM37.152 131.376C36.6 134.04 35.568 136.776 34.224 138.456C34.896 138.816 36.12 139.56 36.672 140.016C38.016 138.072 39.264 135 39.936 131.952L37.152 131.376ZM38.352 124.92L37.272 127.584H48.192V124.92H38.352ZM41.112 126.096V139.92C41.112 140.232 40.992 140.304 40.68 140.304C40.344 140.304 39.336 140.328 38.328 140.28C38.736 141.072 39.168 142.344 39.312 143.184C40.848 143.184 42.024 143.064 42.864 142.608C43.728 142.128 43.968 141.336 43.968 139.944V126.096H41.112ZM44.808 132C45.984 134.472 46.992 137.784 47.256 139.944L50.016 138.984C49.68 136.8 48.648 133.608 47.4 131.136L44.808 132ZM47.424 124.92V125.304C47.256 126.984 46.992 129.12 46.776 130.416L49.248 130.848C49.56 129.408 49.992 127.176 50.28 125.208L48.264 124.848L47.808 124.92H47.424ZM32.688 120.72C31.464 124.152 29.376 127.56 27.192 129.744C27.696 130.44 28.464 132.024 28.728 132.72C31.344 129.984 33.84 125.664 35.4 121.56L32.688 120.72ZM30.36 127.344V143.136H33.12V124.632L33.096 124.608L30.36 127.344ZM69.48 129.648H74.688V132.192H69.48V129.648ZM66.864 127.176V134.64H77.472V127.176H66.864ZM72.408 133.92V139.704C72.408 142.152 72.888 142.992 75.072 142.992C75.456 142.992 76.296 142.992 76.728 142.992C78.48 142.992 79.152 142.08 79.368 138.528C78.648 138.336 77.496 137.88 76.968 137.424C76.896 140.088 76.824 140.448 76.416 140.448C76.224 140.448 75.672 140.448 75.528 140.448C75.192 140.448 75.144 140.376 75.144 139.704V133.92H72.408ZM68.4 134.304C68.184 137.424 67.704 139.656 64.104 140.952C64.704 141.456 65.448 142.536 65.736 143.208C70.104 141.432 70.92 138.432 71.208 134.304H68.4ZM69.096 121.272V123.888H74.904V121.272H69.096ZM67.392 123.408C66.936 124.968 65.904 126.936 64.656 128.136C65.304 128.496 66.312 129.192 66.888 129.696C68.232 128.304 69.408 126.096 70.2 124.128L67.392 123.408ZM72.72 121.272V122.616H73.224C74.04 124.992 75.384 127.512 76.968 129.264C77.52 128.688 78.672 127.848 79.392 127.44C77.856 126 76.392 123.576 75.672 121.272H72.72ZM57.648 127.992V130.152H64.896V127.992H57.648ZM57.72 121.368V123.552H64.824V121.368H57.72ZM57.648 131.256V133.44H64.896V131.256H57.648ZM56.496 124.608V126.888H65.688V124.608H56.496ZM58.896 134.592V136.872H62.472V139.608H58.896V141.888H64.92V134.592H58.896ZM57.6 134.592V142.848H60.024V134.592H57.6ZM95.424 120.696C94.608 124.032 93.144 127.344 91.32 129.408C91.968 129.84 93.12 130.776 93.624 131.28C95.544 128.904 97.248 125.136 98.256 121.344L95.424 120.696ZM94.752 131.376C94.2 134.04 93.168 136.776 91.824 138.456C92.496 138.816 93.72 139.56 94.272 140.016C95.616 138.072 96.864 135 97.536 131.952L94.752 131.376ZM95.952 124.92L94.872 127.584H105.792V124.92H95.952ZM98.712 126.096V139.92C98.712 140.232 98.592 140.304 98.28 140.304C97.944 140.304 96.936 140.328 95.928 140.28C96.336 141.072 96.768 142.344 96.912 143.184C98.448 143.184 99.624 143.064 100.464 142.608C101.328 142.128 101.568 141.336 101.568 139.944V126.096H98.712ZM102.408 132C103.584 134.472 104.592 137.784 104.856 139.944L107.616 138.984C107.28 136.8 106.248 133.608 105 131.136L102.408 132ZM105.024 124.92V125.304C104.856 126.984 104.592 129.12 104.376 130.416L106.848 130.848C107.16 129.408 107.592 127.176 107.88 125.208L105.864 124.848L105.408 124.92H105.024ZM90.288 120.72C89.064 124.152 86.976 127.56 84.792 129.744C85.296 130.44 86.064 132.024 86.328 132.72C88.944 129.984 91.44 125.664 93 121.56L90.288 120.72ZM87.96 127.344V143.136H90.72V124.632L90.696 124.608L87.96 127.344ZM119.76 129.984H114.312V132.648H117V138.816H119.76V129.984ZM119.76 137.688H117.264C116.208 138.576 115.032 139.44 114.024 140.088L115.392 142.944C116.592 141.912 117.6 141 118.56 140.064C120 141.912 121.944 142.608 124.824 142.728C127.752 142.872 132.864 142.824 135.864 142.68C135.984 141.84 136.44 140.52 136.752 139.872C133.416 140.136 127.728 140.208 124.848 140.064C122.376 139.968 120.672 139.272 119.76 137.688ZM114.384 122.856C115.752 124.032 117.36 125.688 118.008 126.864L120.384 125.04C119.64 123.912 117.96 122.304 116.592 121.248L114.384 122.856ZM120.144 126.864V128.856H136.296V126.864H120.144ZM124.728 131.208H131.616V132.432H124.728V131.208ZM122.064 129.6V134.04H134.472V129.6H122.064ZM127.224 132.648C125.76 134.448 122.976 135.936 120.264 136.824C120.792 137.328 121.584 138.384 121.92 138.936C124.776 137.784 127.824 135.84 129.624 133.488L127.224 132.648ZM133.872 133.032C133.128 133.8 131.808 134.928 130.824 135.552L132.336 136.704C133.368 136.152 134.664 135.288 135.912 134.424L133.872 133.032ZM129.12 133.632L127.056 134.232C128.64 136.752 131.376 138.576 134.76 139.368C135.096 138.696 135.792 137.712 136.344 137.208C133.176 136.704 130.464 135.432 129.12 133.632ZM131.112 122.856H132.648V124.512H131.112V122.856ZM127.416 122.856H128.928V124.512H127.416V122.856ZM123.768 122.856H125.256V124.512H123.768V122.856ZM121.344 121.248V126.144H135.192V121.248H121.344ZM126.576 133.152V139.608H129.312V133.152H126.576ZM154.368 122.712V125.304H162.456V122.712H154.368ZM151.128 131.784V134.376H162.264V131.784H151.128ZM161.304 122.712V123.072C161.112 126.504 160.872 127.92 160.488 128.304C160.248 128.496 160.008 128.52 159.624 128.52C159.144 128.52 158.064 128.496 156.984 128.4C157.44 129.12 157.776 130.248 157.848 131.04C159.12 131.088 160.296 131.064 160.968 130.992C161.784 130.92 162.384 130.704 162.912 130.128C163.56 129.408 163.872 127.656 164.112 123.768C164.16 123.408 164.184 122.712 164.184 122.712H161.304ZM153.672 120.6C153.192 124.608 151.92 127.944 149.472 129.864C150.168 130.272 151.44 131.208 151.944 131.664C154.464 129.336 155.976 125.616 156.624 120.984L153.672 120.6ZM161.256 131.784V132.192C159.696 137.016 155.16 139.632 149.328 140.544C149.856 141.192 150.504 142.392 150.768 143.16C157.224 141.792 162.192 138.84 164.256 132.456L162.336 131.688L161.832 131.784H161.256ZM155.088 134.112L152.52 135C154.872 139.08 158.688 141.864 163.824 143.136C164.256 142.344 165.072 141.144 165.72 140.52C160.848 139.584 156.96 137.28 155.088 134.112ZM144.312 122.832C145.848 123.528 147.792 124.68 148.704 125.568L150.384 123.216C149.424 122.352 147.408 121.32 145.872 120.72L144.312 122.832ZM142.872 129.336C144.432 130.008 146.424 131.136 147.336 131.976L148.968 129.6C147.96 128.784 145.92 127.752 144.384 127.176L142.872 129.336ZM143.712 140.976L146.184 142.848C147.552 140.544 149.016 137.784 150.216 135.264L148.056 133.392C146.664 136.176 144.936 139.152 143.712 140.976ZM171.888 122.4V125.064H180.12V122.4H171.888ZM172.128 129.336V131.976H179.904V129.336H172.128ZM171.456 137.664L172.032 140.424C174.48 139.776 177.72 138.936 180.744 138.12L180.432 135.624C177.168 136.416 173.712 137.208 171.456 137.664ZM181.32 122.328V125.064H192.888V122.328H181.32ZM180.36 129.096V131.856H194.16V129.096H180.36ZM183.096 131.04C182.928 136.224 182.616 139.248 177.576 140.952C178.152 141.456 178.896 142.512 179.184 143.184C184.968 141.072 185.664 137.16 185.88 131.04H183.096ZM187.488 130.968V139.488C187.488 142.152 187.992 143.04 190.224 143.04C190.632 143.04 191.472 143.04 191.88 143.04C193.728 143.04 194.424 141.96 194.664 138.24C193.896 138.048 192.672 137.568 192.12 137.064C192.048 139.896 191.952 140.352 191.568 140.352C191.424 140.352 190.872 140.352 190.728 140.352C190.392 140.352 190.344 140.256 190.344 139.464V130.968H187.488ZM174.744 123.456V138.168L177.528 137.736V123.456H174.744ZM206.16 129.984H200.712V132.648H203.4V138.816H206.16V129.984ZM206.16 137.688H203.664C202.608 138.576 201.432 139.44 200.424 140.088L201.792 142.944C202.992 141.912 204 141 204.96 140.064C206.4 141.912 208.344 142.608 211.224 142.728C214.152 142.872 219.264 142.824 222.264 142.68C222.384 141.84 222.84 140.52 223.152 139.872C219.816 140.136 214.128 140.208 211.248 140.064C208.776 139.968 207.072 139.272 206.16 137.688ZM200.784 122.856C202.152 124.032 203.76 125.688 204.408 126.864L206.784 125.04C206.04 123.912 204.36 122.304 202.992 121.248L200.784 122.856ZM207.864 128.712V139.2H210.36V130.896H220.824V128.712H207.864ZM213.6 124.944V129.552H215.616V126.744H218.544V124.944H213.6ZM209.664 121.344V129.312H212.16V123.456H217.464V129.312H220.056V121.344H209.664ZM212.88 131.88V133.728H215.832V135.384H212.88V137.184H217.92V131.88H212.88ZM219.216 128.712V136.728C219.216 136.968 219.12 137.04 218.88 137.04C218.664 137.04 217.896 137.04 217.2 137.016C217.488 137.64 217.8 138.6 217.896 139.272C219.192 139.272 220.176 139.248 220.896 138.888C221.64 138.504 221.808 137.88 221.808 136.752V128.712H219.216ZM211.584 131.88V137.928H213.672V131.88H211.584ZM28.344 160.08V163.056H49.704V160.08H28.344ZM40.656 161.28L37.752 161.952C39.576 168.552 42.576 173.52 48.072 176.088C48.552 175.248 49.512 174 50.232 173.352C45.144 171.336 42.096 166.776 40.656 161.28ZM37.344 153.624C37.272 160.128 37.704 169.248 27.864 173.64C28.704 174.264 29.592 175.296 30.048 176.088C40.344 171.12 40.392 160.944 40.512 153.624H37.344ZM66.288 153.648V157.08H69.24V153.648H66.288ZM57.624 155.52V160.944H60.432V158.136H75.12V160.944H78.048V155.52H57.624ZM61.272 159.672V162.12H74.232V159.672H61.272ZM63.624 163.944C68.208 167.208 68.208 171.96 66.84 173.016C66.432 173.448 65.976 173.52 65.376 173.52C64.752 173.52 63.96 173.496 63.072 173.4C63.576 174.216 63.84 175.368 63.888 176.16C64.608 176.208 65.328 176.232 65.928 176.208C67.2 176.208 67.968 175.992 68.88 175.2C71.448 173.352 71.496 166.584 65.832 162.648L63.624 163.944ZM67.416 160.296C65.328 162.288 61.224 163.776 57.408 164.544C57.864 165.072 58.608 166.224 58.872 166.776C62.88 165.72 67.248 163.872 69.792 161.28L67.416 160.296ZM65.544 165.072C63.84 166.368 60.36 167.808 57.744 168.432C58.272 169.008 58.872 169.992 59.184 170.616C61.872 169.68 65.4 167.904 67.392 166.368L65.544 165.072ZM67.488 167.352C65.256 169.512 60.672 171.768 56.88 172.704C57.432 173.328 58.056 174.36 58.392 175.08C62.208 173.808 66.888 171.264 69.456 168.816L67.488 167.352ZM71.136 160.704L68.712 161.184C70.08 167.232 72.48 172.032 77.016 174.456C77.448 173.664 78.36 172.512 79.008 171.936C74.76 170.04 72.288 165.744 71.136 160.704ZM75.816 162.264C74.568 163.464 72.432 165 70.92 165.864L72.768 167.592C74.328 166.8 76.416 165.456 78.072 164.208L75.816 162.264ZM86.232 156.624V159.432H107.112V156.624H86.232ZM94.992 153.624V176.16H98.016V153.624H94.992ZM95.328 164.472C93.312 167.928 89.352 171.192 85.2 172.8C85.848 173.376 86.784 174.552 87.24 175.272C91.512 173.304 95.376 169.632 97.728 165.384L95.328 164.472ZM97.896 164.664L95.52 165.6C97.872 169.704 101.664 173.328 105.84 175.248C106.32 174.432 107.256 173.232 107.976 172.608C103.848 171.096 99.912 167.976 97.896 164.664ZM89.136 163.608C90.24 164.592 91.752 165.984 92.472 166.848L94.368 164.832C93.6 164.016 92.04 162.696 90.96 161.784L89.136 163.608ZM90.096 159.576C89.424 162.504 87.96 165.048 85.848 166.584C86.496 167.016 87.6 167.952 88.08 168.48C90.312 166.608 92.016 163.608 92.904 160.104L90.096 159.576ZM100.608 163.704C102.144 164.976 104.352 166.752 105.36 167.832L107.352 165.84C106.248 164.808 103.968 163.104 102.48 161.976L100.608 163.704ZM101.424 159.576C100.92 162 99.792 164.232 98.184 165.6C98.856 165.912 100.08 166.656 100.632 167.112C102.24 165.504 103.56 162.96 104.208 160.08L101.424 159.576ZM114.024 165.816L114.768 168.576C117.12 167.976 120.168 167.184 122.952 166.416L122.616 163.752C119.544 164.568 116.232 165.36 114.024 165.816ZM114.312 158.184V160.872H122.712V158.184H114.312ZM117.312 153.624V172.92C117.312 173.256 117.192 173.376 116.856 173.376C116.544 173.376 115.536 173.4 114.6 173.352C114.936 174.072 115.296 175.248 115.392 175.968C117.096 175.968 118.248 175.896 119.064 175.464C119.856 175.032 120.12 174.312 120.12 172.944V153.624H117.312ZM122.976 160.008L123.264 162.768L136.392 161.424L136.104 158.736L122.976 160.008ZM129.528 155.28C130.584 156.384 132 157.968 132.648 158.952L134.976 157.344C134.256 156.384 132.792 154.896 131.736 153.864L129.528 155.28ZM125.688 153.744C126.12 166.824 127.632 175.368 133.536 175.968C134.88 176.088 136.176 174.984 136.824 170.496C136.248 170.232 134.976 169.44 134.4 168.816C134.256 171.408 133.944 172.584 133.392 172.512C130.248 172.056 128.808 164.136 128.64 153.744H125.688ZM132.984 162.36C130.992 166.896 126.792 171.24 121.92 173.136C122.736 173.712 123.696 174.624 124.224 175.368C128.904 173.16 133.176 168.576 135.36 163.8L132.984 162.36ZM159 161.568V163.92H165.264V161.568H159ZM147.528 163.248V176.112H149.472V165.336H155.424V163.248H147.528ZM150.888 158.4V164.592H153.288V158.4H150.888ZM154.512 163.248V173.712C154.512 173.976 154.44 174.048 154.152 174.048C153.864 174.048 152.976 174.048 152.088 174.024C152.352 174.6 152.616 175.488 152.688 176.064C154.08 176.064 155.04 176.064 155.712 175.704C156.384 175.368 156.552 174.768 156.552 173.736V163.248H154.512ZM150.696 166.44V168.192H152.52V170.328H150.696V172.08H153.744V166.44H150.696ZM150.24 166.44V172.824H151.44V166.44H150.24ZM158.64 158.328C158.16 161.328 157.248 164.28 155.856 166.176C156.408 166.56 157.344 167.448 157.752 167.904C159.312 165.696 160.464 162.264 161.088 158.784L158.64 158.328ZM147.336 159.552C147.84 160.68 148.272 162.168 148.368 163.104L150.432 162.456C150.336 161.496 149.856 160.056 149.28 158.976L147.336 159.552ZM159.696 163.416L157.8 163.776C158.76 169.272 160.488 173.832 163.992 176.16C164.352 175.512 165.12 174.576 165.648 174.096C162.36 172.272 160.56 168.12 159.696 163.416ZM154.92 158.808C154.68 159.888 154.152 161.424 153.744 162.408L155.664 163.056C156.12 162.12 156.672 160.776 157.248 159.504L154.92 158.808ZM153.456 153.624V156.72H156.456V153.624H153.456ZM146.136 155.496V157.896H165.168V155.496H146.136ZM144.408 155.496V162.912C144.408 166.392 144.288 171.24 142.752 174.6C143.328 174.888 144.456 175.752 144.912 176.232C146.712 172.56 147 166.752 147 162.912V155.496H144.408ZM162.072 162.744C161.616 167.328 160.2 172.008 156.096 174.36C156.528 174.792 157.224 175.704 157.488 176.208C162.096 173.544 163.8 168.264 164.544 163.008L162.072 162.744ZM175.632 165.6C176.544 165.184 177.232 164.728 177.696 164.232C178.176 163.72 178.504 163.168 178.68 162.576C178.856 161.984 178.944 161.36 178.944 160.704C178.944 160.176 178.88 159.728 178.752 159.36C178.624 158.976 178.432 158.68 178.176 158.472C177.936 158.264 177.624 158.16 177.24 158.16C176.84 158.16 176.504 158.296 176.232 158.568C175.976 158.824 175.784 159.2 175.656 159.696C175.544 160.192 175.488 160.8 175.488 161.52C174.336 161.52 173.432 161.384 172.776 161.112C172.12 160.824 171.792 160.336 171.792 159.648C171.792 159.248 171.896 158.872 172.104 158.52C172.312 158.152 172.632 157.832 173.064 157.56C173.496 157.272 174.048 157.048 174.72 156.888C175.408 156.712 176.216 156.624 177.144 156.624C178.36 156.624 179.424 156.8 180.336 157.152C181.248 157.504 181.96 158.016 182.472 158.688C182.984 159.344 183.24 160.136 183.24 161.064C183.24 161.912 183.064 162.64 182.712 163.248C182.376 163.856 181.856 164.4 181.152 164.88C180.448 165.36 179.552 165.832 178.464 166.296L178.008 168.408H176.088L175.632 165.6ZM177 174.216C176.408 174.216 175.904 174.064 175.488 173.76C175.088 173.456 174.888 172.912 174.888 172.128C174.888 171.328 175.088 170.784 175.488 170.496C175.904 170.192 176.408 170.04 177 170.04C177.576 170.04 178.072 170.192 178.488 170.496C178.92 170.784 179.136 171.328 179.136 172.128C179.136 172.912 178.92 173.456 178.488 173.76C178.072 174.064 177.576 174.216 177 174.216ZM192.737 168.408L191.273 156.864H196.025L194.585 168.408H192.737ZM193.673 174.216C193.081 174.216 192.577 174.064 192.161 173.76C191.761 173.456 191.561 172.912 191.561 172.128C191.561 171.328 191.761 170.784 192.161 170.496C192.577 170.192 193.081 170.04 193.673 170.04C194.249 170.04 194.745 170.192 195.161 170.496C195.577 170.784 195.785 171.328 195.785 172.128C195.785 172.912 195.577 173.456 195.161 173.76C194.745 174.064 194.249 174.216 193.673 174.216Z" fill="#616161"/>
<mask id="mask1_301_3548" style="mask-type:alpha" maskUnits="userSpaceOnUse" x="217" y="182" width="166" height="118">
<rect width="165.586" height="116.419" transform="matrix(1 1.97337e-05 -0.0021797 0.999998 217.254 182.9)" fill="#DEF4FF"/>
</mask>
<g mask="url(#mask1_301_3548)">
<path d="M378.031 197.315L378.022 203.678L384.314 203.652L384.322 197.289L378.031 197.315Z" fill="#99A583"/>
<path d="M371.731 197.314L371.723 203.677L378.021 203.651L378.029 197.288L371.731 197.314Z" fill="#C6C624"/>
<path d="M365.431 197.314L365.423 203.677L371.721 203.651L371.729 197.288L365.431 197.314Z" fill="#C6C624"/>
<path d="M359.138 197.314L359.13 203.677L365.422 203.651L365.43 197.288L359.138 197.314Z" fill="#C6C624"/>
<path d="M352.839 197.314L352.831 203.677L359.129 203.651L359.137 197.288L352.839 197.314Z" fill="#C6C624"/>
<path d="M346.547 197.315L346.539 203.678L352.831 203.652L352.839 197.289L346.547 197.315Z" fill="#C6C624"/>
<path d="M340.247 197.314L340.239 203.677L346.537 203.651L346.546 197.288L340.247 197.314Z" fill="#99A583"/>
<path d="M333.949 197.314L333.94 203.677L340.239 203.651L340.247 197.288L333.949 197.314Z" fill="#C6C624"/>
<path d="M327.655 197.314L327.646 203.677L333.938 203.651L333.946 197.288L327.655 197.314Z" fill="#C6C624"/>
<path d="M321.356 197.314L321.348 203.677L327.646 203.651L327.654 197.288L321.356 197.314Z" fill="#C6C624"/>
<path d="M315.063 197.314L315.055 203.677L321.346 203.651L321.355 197.288L315.063 197.314Z" fill="#C6C624"/>
<path d="M378.016 203.704L378.008 210.06L384.3 210.034L384.308 203.678L378.016 203.704Z" fill="#99A583"/>
<path d="M371.717 203.705L371.709 210.061L378.007 210.035L378.015 203.679L371.717 203.705Z" fill="#C6C624"/>
<path d="M365.417 203.704L365.409 210.06L371.707 210.034L371.716 203.678L365.417 203.704Z" fill="#C6C624"/>
<path d="M359.124 203.704L359.116 210.06L365.408 210.034L365.416 203.678L359.124 203.704Z" fill="#C6C624"/>
<path d="M352.827 203.702L352.818 210.058L359.117 210.032L359.125 203.676L352.827 203.702Z" fill="#C6C624"/>
<path d="M346.533 203.704L346.524 210.06L352.816 210.034L352.824 203.678L346.533 203.704Z" fill="#C6C624"/>
<path d="M340.234 203.704L340.226 210.06L346.524 210.034L346.532 203.678L340.234 203.704Z" fill="#99A583"/>
<path d="M333.934 203.702L333.926 210.058L340.224 210.032L340.232 203.676L333.934 203.702Z" fill="#C6C624"/>
<path d="M327.641 203.704L327.633 210.06L333.925 210.034L333.933 203.678L327.641 203.704Z" fill="#C6C624"/>
<path d="M321.341 203.704L321.333 210.06L327.631 210.034L327.639 203.678L321.341 203.704Z" fill="#C6C624"/>
<path d="M315.048 203.704L315.04 210.06L321.332 210.034L321.34 203.678L315.048 203.704Z" fill="#C6C624"/>
<path d="M308.75 203.704L308.742 210.06L315.04 210.034L315.049 203.678L308.75 203.704Z" fill="#99A583"/>
<path d="M302.451 203.702L302.442 210.058L308.741 210.032L308.749 203.676L302.451 203.702Z" fill="#99A583"/>
<path d="M296.158 203.702L296.149 210.058L302.441 210.032L302.449 203.676L296.158 203.702Z" fill="#5C8E06"/>
<path d="M289.859 203.704L289.851 210.06L296.149 210.034L296.157 203.678L289.859 203.704Z" fill="#5C8E06"/>
<path d="M283.565 203.702L283.557 210.058L289.848 210.032L289.857 203.676L283.565 203.702Z" fill="#5C8E06"/>
<path d="M277.266 203.702L277.258 210.058L283.556 210.032L283.564 203.676L277.266 203.702Z" fill="#5C8E06"/>
<path d="M270.966 203.701L270.958 210.057L277.256 210.031L277.264 203.675L270.966 203.701Z" fill="#5C8E06"/>
<path d="M264.673 203.702L264.665 210.058L270.957 210.032L270.965 203.676L264.673 203.702Z" fill="#99A583"/>
<path d="M258.373 203.702L258.365 210.058L264.663 210.032L264.672 203.676L258.373 203.702Z" fill="#C6C624"/>
<path d="M252.075 203.701L252.066 210.057L258.365 210.031L258.373 203.675L252.075 203.701Z" fill="#C6C624"/>
<path d="M378.002 210.086L377.994 216.448L384.286 216.422L384.294 210.06L378.002 210.086Z" fill="#99A583"/>
<path d="M371.703 210.086L371.694 216.448L377.993 216.422L378.001 210.06L371.703 210.086Z" fill="#C6C624"/>
<path d="M365.403 210.086L365.395 216.448L371.693 216.422L371.701 210.06L365.403 210.086Z" fill="#C6C624"/>
<path d="M359.112 210.086L359.104 216.448L365.395 216.422L365.403 210.06L359.112 210.086Z" fill="#C6C624"/>
<path d="M352.812 210.086L352.804 216.448L359.102 216.422L359.11 210.06L352.812 210.086Z" fill="#C6C624"/>
<path d="M346.519 210.085L346.511 216.447L352.802 216.421L352.811 210.059L346.519 210.085Z" fill="#C6C624"/>
<path d="M340.219 210.086L340.211 216.448L346.509 216.422L346.517 210.06L340.219 210.086Z" fill="#99A583"/>
<path d="M333.92 210.086L333.912 216.448L340.21 216.422L340.218 210.06L333.92 210.086Z" fill="#C6C624"/>
<path d="M327.626 210.085L327.618 216.447L333.91 216.421L333.918 210.059L327.626 210.085Z" fill="#C6C624"/>
<path d="M321.328 210.085L321.319 216.447L327.618 216.421L327.626 210.059L321.328 210.085Z" fill="#C6C624"/>
<path d="M315.036 210.085L315.027 216.447L321.319 216.421L321.327 210.059L315.036 210.085Z" fill="#C6C624"/>
<path d="M308.737 210.085L308.729 216.447L315.027 216.421L315.035 210.059L308.737 210.085Z" fill="#99A583"/>
<path d="M302.437 210.085L302.429 216.447L308.727 216.421L308.735 210.059L302.437 210.085Z" fill="#5C8E06"/>
<path d="M296.144 210.085L296.136 216.447L302.427 216.421L302.436 210.059L296.144 210.085Z" fill="#5C8E06"/>
<path d="M289.844 210.085L289.836 216.447L296.134 216.421L296.142 210.059L289.844 210.085Z" fill="#5C8E06"/>
<path d="M283.551 210.085L283.543 216.447L289.835 216.421L289.843 210.059L283.551 210.085Z" fill="#5C8E06"/>
<path d="M277.251 210.085L277.243 216.447L283.541 216.421L283.55 210.059L277.251 210.085Z" fill="#5C8E06"/>
<path d="M270.953 210.085L270.944 216.447L277.243 216.421L277.251 210.059L270.953 210.085Z" fill="#5C8E06"/>
<path d="M264.659 210.083L264.65 216.445L270.942 216.419L270.95 210.057L264.659 210.083Z" fill="#99A583"/>
<path d="M258.36 210.085L258.352 216.447L264.65 216.421L264.658 210.059L258.36 210.085Z" fill="#C6C624"/>
<path d="M252.06 210.085L252.052 216.447L258.35 216.421L258.358 210.059L252.06 210.085Z" fill="#C6C624"/>
<path d="M245.768 210.083L245.76 216.445L252.052 216.419L252.06 210.057L245.768 210.083Z" fill="#C6C624"/>
<path d="M377.988 216.474L377.979 222.83L384.271 222.804L384.279 216.448L377.988 216.474Z" fill="#99A583"/>
<path d="M371.689 216.474L371.681 222.83L377.979 222.804L377.987 216.448L371.689 216.474Z" fill="#C6C624"/>
<path d="M365.391 216.474L365.383 222.83L371.681 222.804L371.689 216.448L365.391 216.474Z" fill="#C6C624"/>
<path d="M359.097 216.474L359.089 222.83L365.381 222.804L365.389 216.448L359.097 216.474Z" fill="#C6C624"/>
<path d="M352.798 216.474L352.79 222.83L359.088 222.804L359.096 216.448L352.798 216.474Z" fill="#C6C624"/>
<path d="M346.504 216.474L346.496 222.83L352.788 222.804L352.796 216.448L346.504 216.474Z" fill="#C6C624"/>
<path d="M340.205 216.474L340.197 222.83L346.495 222.804L346.504 216.448L340.205 216.474Z" fill="#99A583"/>
<path d="M333.906 216.474L333.897 222.83L340.196 222.804L340.204 216.448L333.906 216.474Z" fill="#C6C624"/>
<path d="M327.613 216.474L327.604 222.83L333.896 222.804L333.904 216.448L327.613 216.474Z" fill="#C6C624"/>
<path d="M321.313 216.474L321.305 222.83L327.603 222.804L327.611 216.448L321.313 216.474Z" fill="#C6C624"/>
<path d="M315.022 216.472L315.014 222.828L321.305 222.802L321.314 216.446L315.022 216.472Z" fill="#C6C624"/>
<path d="M308.722 216.474L308.714 222.83L315.012 222.804L315.02 216.448L308.722 216.474Z" fill="#99A583"/>
<path d="M302.422 216.474L302.414 222.83L308.712 222.804L308.72 216.448L302.422 216.474Z" fill="#5C8E06"/>
<path d="M296.129 216.472L296.121 222.828L302.413 222.802L302.421 216.446L296.129 216.472Z" fill="#5C8E06"/>
<path d="M289.83 216.472L289.822 222.828L296.12 222.802L296.129 216.446L289.83 216.472Z" fill="#5C8E06"/>
<path d="M283.537 216.472L283.528 222.828L289.82 222.802L289.828 216.446L283.537 216.472Z" fill="#5C8E06"/>
<path d="M277.239 216.472L277.23 222.828L283.529 222.802L283.537 216.446L277.239 216.472Z" fill="#5C8E06"/>
<path d="M270.94 216.472L270.932 222.828L277.23 222.802L277.238 216.446L270.94 216.472Z" fill="#5C8E06"/>
<path d="M264.646 216.472L264.638 222.828L270.929 222.802L270.938 216.446L264.646 216.472Z" fill="#99A583"/>
<path d="M258.347 216.472L258.339 222.828L264.637 222.802L264.645 216.446L258.347 216.472Z" fill="#C6C624"/>
<path d="M252.047 216.472L252.039 222.828L258.337 222.802L258.345 216.446L252.047 216.472Z" fill="#C6C624"/>
<path d="M245.754 216.472L245.746 222.828L252.038 222.802L252.046 216.446L245.754 216.472Z" fill="#C6C624"/>
<path d="M239.455 216.472L239.446 222.828L245.744 222.802L245.753 216.446L239.455 216.472Z" fill="#C6C624"/>
<path d="M377.974 222.858L377.966 229.221L384.258 229.195L384.266 222.832L377.974 222.858Z" fill="#99A583"/>
<path d="M371.676 222.856L371.668 229.219L377.966 229.193L377.974 222.83L371.676 222.856Z" fill="#C6C624"/>
<path d="M365.376 222.856L365.368 229.219L371.666 229.193L371.675 222.83L365.376 222.856Z" fill="#C6C624"/>
<path d="M359.083 222.855L359.075 229.218L365.367 229.192L365.375 222.829L359.083 222.855Z" fill="#C6C624"/>
<path d="M352.784 222.856L352.775 229.219L359.074 229.193L359.082 222.831L352.784 222.856Z" fill="#C6C624"/>
<path d="M346.491 222.856L346.482 229.219L352.774 229.193L352.782 222.83L346.491 222.856Z" fill="#C6C624"/>
<path d="M340.191 222.855L340.183 229.218L346.481 229.192L346.489 222.829L340.191 222.855Z" fill="#99A583"/>
<path d="M333.892 222.856L333.884 229.219L340.182 229.193L340.19 222.83L333.892 222.856Z" fill="#C6C624"/>
<path d="M327.598 222.856L327.59 229.219L333.882 229.193L333.89 222.83L327.598 222.856Z" fill="#C6C624"/>
<rect width="50.3388" height="6.46885" transform="matrix(1 -0.00175155 -0.00135262 0.999996 264.63 197.375)" fill="#84AE62"/>
<path d="M321.3 222.855L321.292 229.218L327.59 229.192L327.598 222.829L321.3 222.855Z" fill="#C6C624"/>
<path d="M315.007 222.856L314.999 229.219L321.291 229.193L321.299 222.83L315.007 222.856Z" fill="#C6C624"/>
<path d="M308.708 222.855L308.7 229.218L314.998 229.192L315.007 222.83L308.708 222.855Z" fill="#99A583"/>
<path d="M302.409 222.855L302.4 229.218L308.699 229.192L308.707 222.829L302.409 222.855Z" fill="#5C8E06"/>
<path d="M296.116 222.856L296.107 229.219L302.399 229.193L302.407 222.83L296.116 222.856Z" fill="#5C8E06"/>
<path d="M289.816 222.855L289.808 229.218L296.106 229.192L296.114 222.829L289.816 222.855Z" fill="#5C8E06"/>
<path d="M283.523 222.855L283.515 229.218L289.806 229.192L289.815 222.83L283.523 222.855Z" fill="#5C8E06"/>
<path d="M277.225 222.855L277.217 229.218L283.515 229.192L283.523 222.83L277.225 222.855Z" fill="#5C8E06"/>
<path d="M270.925 222.855L270.917 229.218L277.215 229.192L277.223 222.829L270.925 222.855Z" fill="#5C8E06"/>
<path d="M264.632 222.855L264.624 229.218L270.916 229.192L270.924 222.829L264.632 222.855Z" fill="#99A583"/>
<path d="M258.332 222.853L258.324 229.216L264.622 229.19L264.631 222.828L258.332 222.853Z" fill="#C6C624"/>
<path d="M252.034 222.855L252.025 229.218L258.324 229.192L258.332 222.829L252.034 222.855Z" fill="#C6C624"/>
<path d="M245.74 222.853L245.731 229.216L252.023 229.19L252.031 222.828L245.74 222.853Z" fill="#C6C624"/>
<path d="M239.441 222.853L239.433 229.216L245.731 229.19L245.739 222.828L239.441 222.853Z" fill="#C6C624"/>
<path d="M233.149 222.855L233.141 229.218L239.432 229.192L239.441 222.829L233.149 222.855Z" fill="#99A583"/>
<path d="M226.848 222.853L226.84 229.216L233.138 229.19L233.146 222.828L226.848 222.853Z" fill="#C6C624"/>
<path d="M220.548 222.853L220.54 229.216L226.838 229.19L226.846 222.828L220.548 222.853Z" fill="#C6C624"/>
<path d="M377.961 229.246L377.953 235.608L384.245 235.583L384.253 229.22L377.961 229.246Z" fill="#99A583"/>
<path d="M371.662 229.246L371.653 235.608L377.952 235.583L377.96 229.22L371.662 229.246Z" fill="#C6C624"/>
<path d="M365.362 229.244L365.354 235.606L371.652 235.581L371.66 229.218L365.362 229.244Z" fill="#C6C624"/>
<path d="M359.069 229.246L359.061 235.608L365.352 235.583L365.361 229.22L359.069 229.246Z" fill="#C6C624"/>
<path d="M352.77 229.246L352.762 235.608L359.06 235.583L359.068 229.22L352.77 229.246Z" fill="#C6C624"/>
<path d="M346.476 229.246L346.468 235.608L352.76 235.583L352.768 229.22L346.476 229.246Z" fill="#C6C624"/>
<path d="M340.177 229.246L340.169 235.608L346.467 235.583L346.475 229.22L340.177 229.246Z" fill="#99A583"/>
<path d="M333.879 229.244L333.871 235.606L340.169 235.581L340.178 229.218L333.879 229.244Z" fill="#C6C624"/>
<path d="M327.586 229.246L327.578 235.608L333.87 235.583L333.878 229.22L327.586 229.246Z" fill="#C6C624"/>
<path d="M321.287 229.246L321.278 235.608L327.577 235.583L327.585 229.22L321.287 229.246Z" fill="#C6C624"/>
<path d="M314.994 229.244L314.985 235.606L321.277 235.581L321.285 229.218L314.994 229.244Z" fill="#C6C624"/>
<path d="M308.694 229.244L308.686 235.606L314.984 235.581L314.992 229.218L308.694 229.244Z" fill="#99A583"/>
<path d="M302.394 229.244L302.386 235.606L308.684 235.581L308.692 229.218L302.394 229.244Z" fill="#5C8E06"/>
<path d="M296.101 229.244L296.093 235.606L302.384 235.581L302.393 229.218L296.101 229.244Z" fill="#5C8E06"/>
<path d="M289.802 229.244L289.794 235.606L296.092 235.581L296.1 229.218L289.802 229.244Z" fill="#5C8E06"/>
<path d="M283.51 229.244L283.502 235.606L289.794 235.581L289.802 229.218L283.51 229.244Z" fill="#5C8E06"/>
<path d="M277.21 229.244L277.202 235.606L283.5 235.581L283.509 229.218L277.21 229.244Z" fill="#5C8E06"/>
<path d="M270.912 229.244L270.903 235.606L277.202 235.581L277.21 229.218L270.912 229.244Z" fill="#5C8E06"/>
<path d="M264.618 229.244L264.609 235.606L270.901 235.581L270.909 229.218L264.618 229.244Z" fill="#99A583"/>
<path d="M258.319 229.244L258.311 235.606L264.609 235.581L264.617 229.218L258.319 229.244Z" fill="#C6C624"/>
<path d="M252.019 229.243L252.011 235.605L258.309 235.58L258.317 229.217L252.019 229.243Z" fill="#C6C624"/>
<path d="M245.726 229.244L245.718 235.606L252.01 235.581L252.018 229.218L245.726 229.244Z" fill="#C6C624"/>
<path d="M239.428 229.244L239.42 235.606L245.718 235.581L245.726 229.218L239.428 229.244Z" fill="#C6C624"/>
<path d="M233.135 229.243L233.127 235.605L239.419 235.58L239.427 229.217L233.135 229.243Z" fill="#99A583"/>
<path d="M226.833 229.243L226.825 235.605L233.123 235.58L233.132 229.217L226.833 229.243Z" fill="#C6C624"/>
<path d="M220.536 229.243L220.527 235.605L226.826 235.58L226.834 229.217L220.536 229.243Z" fill="#C6C624"/>
<path d="M377.947 235.633L377.938 241.989L384.23 241.963L384.238 235.607L377.947 235.633Z" fill="#99A583"/>
<path d="M371.648 235.635L371.64 241.991L377.938 241.965L377.946 235.609L371.648 235.635Z" fill="#99A583"/>
<path d="M365.348 235.635L365.34 241.991L371.638 241.965L371.646 235.609L365.348 235.635Z" fill="#99A583"/>
<path d="M359.055 235.633L359.047 241.989L365.339 241.963L365.347 235.607L359.055 235.633Z" fill="#C6C624"/>
<path d="M352.755 235.633L352.747 241.989L359.045 241.963L359.053 235.607L352.755 235.633Z" fill="#C6C624"/>
<path d="M346.462 235.633L346.454 241.989L352.746 241.963L352.754 235.607L346.462 235.633Z" fill="#C6C624"/>
<path d="M340.163 235.633L340.154 241.989L346.452 241.963L346.461 235.608L340.163 235.633Z" fill="#99A583"/>
<path d="M333.865 235.633L333.856 241.989L340.155 241.963L340.163 235.607L333.865 235.633Z" fill="#C6C624"/>
<path d="M327.572 235.633L327.563 241.989L333.855 241.963L333.863 235.608L327.572 235.633Z" fill="#C6C624"/>
<path d="M321.272 235.633L321.264 241.989L327.562 241.963L327.57 235.607L321.272 235.633Z" fill="#C6C624"/>
<path d="M314.979 235.633L314.971 241.989L321.262 241.963L321.271 235.608L314.979 235.633Z" fill="#C6C624"/>
<path d="M308.679 235.633L308.671 241.989L314.969 241.963L314.977 235.608L308.679 235.633Z" fill="#99A583"/>
<path d="M302.38 235.633L302.372 241.989L308.67 241.963L308.678 235.607L302.38 235.633Z" fill="#5C8E06"/>
<path d="M296.087 235.632L296.079 241.988L302.371 241.962L302.379 235.607L296.087 235.632Z" fill="#5C8E06"/>
<path d="M289.789 235.633L289.781 241.989L296.079 241.963L296.088 235.608L289.789 235.633Z" fill="#5C8E06"/>
<path d="M283.496 235.632L283.487 241.988L289.779 241.962L289.787 235.606L283.496 235.632Z" fill="#5C8E06"/>
<path d="M277.197 235.632L277.188 241.988L283.487 241.962L283.495 235.607L277.197 235.632Z" fill="#5C8E06"/>
<path d="M270.897 235.632L270.889 241.988L277.187 241.962L277.195 235.606L270.897 235.632Z" fill="#5C8E06"/>
<path d="M264.604 235.632L264.596 241.988L270.887 241.962L270.896 235.606L264.604 235.632Z" fill="#99A583"/>
<path d="M258.304 235.632L258.296 241.988L264.594 241.962L264.602 235.607L258.304 235.632Z" fill="#C6C624"/>
<path d="M252.005 235.632L251.997 241.988L258.295 241.962L258.303 235.607L252.005 235.632Z" fill="#C6C624"/>
<path d="M245.713 235.632L245.705 241.988L251.997 241.962L252.005 235.606L245.713 235.632Z" fill="#C6C624"/>
<path d="M239.413 235.632L239.405 241.988L245.703 241.962L245.712 235.607L239.413 235.632Z" fill="#C6C624"/>
<path d="M233.121 235.632L233.112 241.988L239.404 241.962L239.412 235.606L233.121 235.632Z" fill="#99A583"/>
<path d="M226.821 235.632L226.812 241.988L233.111 241.962L233.119 235.607L226.821 235.632Z" fill="#C6C624"/>
<path d="M220.522 235.632L220.514 241.988L226.812 241.962L226.82 235.607L220.522 235.632Z" fill="#C6C624"/>
<path d="M214.229 235.632L214.221 241.988L220.512 241.962L220.521 235.607L214.229 235.632Z" fill="#C6C624"/>
<path d="M377.933 242.016L377.925 248.379L384.217 248.353L384.225 241.991L377.933 242.016Z" fill="#4C6821"/>
<path d="M371.633 242.016L371.625 248.379L377.923 248.353L377.931 241.991L371.633 242.016Z" fill="#99A583"/>
<path d="M365.333 242.016L365.325 248.379L371.623 248.353L371.632 241.991L365.333 242.016Z" fill="#99A583"/>
<path d="M359.04 242.016L359.032 248.379L365.324 248.353L365.332 241.991L359.04 242.016Z" fill="#99A583"/>
<path d="M352.742 242.016L352.733 248.379L359.032 248.353L359.04 241.991L352.742 242.016Z" fill="#99A583"/>
<path d="M346.45 242.016L346.441 248.379L352.733 248.353L352.741 241.991L346.45 242.016Z" fill="#99A583"/>
<path d="M340.15 242.016L340.142 248.379L346.44 248.353L346.448 241.991L340.15 242.016Z" fill="#99A583"/>
<path d="M333.851 242.016L333.843 248.379L340.141 248.353L340.149 241.991L333.851 242.016Z" fill="#99A583"/>
<path d="M327.557 242.014L327.549 248.377L333.841 248.351L333.849 241.989L327.557 242.014Z" fill="#99A583"/>
<path d="M321.258 242.015L321.25 248.377L327.548 248.351L327.556 241.989L321.258 242.015Z" fill="#C6C624"/>
<path d="M314.965 242.014L314.957 248.377L321.249 248.351L321.257 241.989L314.965 242.014Z" fill="#C6C624"/>
<path d="M308.665 242.014L308.657 248.377L314.955 248.351L314.964 241.989L308.665 242.014Z" fill="#99A583"/>
<path d="M302.366 242.014L302.357 248.377L308.656 248.351L308.664 241.989L302.366 242.014Z" fill="#5C8E06"/>
<path d="M296.075 242.014L296.066 248.377L302.358 248.351L302.366 241.989L296.075 242.014Z" fill="#5C8E06"/>
<path d="M289.775 242.015L289.767 248.377L296.065 248.351L296.073 241.989L289.775 242.015Z" fill="#5C8E06"/>
<path d="M283.482 242.014L283.474 248.377L289.765 248.351L289.774 241.989L283.482 242.014Z" fill="#5C8E06"/>
<path d="M277.182 242.014L277.174 248.377L283.472 248.351L283.48 241.989L277.182 242.014Z" fill="#5C8E06"/>
<path d="M270.883 242.014L270.875 248.377L277.173 248.351L277.181 241.989L270.883 242.014Z" fill="#5C8E06"/>
<path d="M264.589 242.014L264.581 248.377L270.873 248.351L270.881 241.989L264.589 242.014Z" fill="#99A583"/>
<path d="M258.29 242.015L258.282 248.377L264.58 248.351L264.589 241.989L258.29 242.015Z" fill="#C6C624"/>
<path d="M251.991 242.015L251.982 248.377L258.281 248.351L258.289 241.989L251.991 242.015Z" fill="#C6C624"/>
<path d="M245.699 242.013L245.69 248.376L251.982 248.35L251.99 241.988L245.699 242.013Z" fill="#C6C624"/>
<path d="M239.4 242.014L239.392 248.377L245.69 248.351L245.698 241.989L239.4 242.014Z" fill="#C6C624"/>
<path d="M233.107 242.014L233.099 248.376L239.39 248.35L239.399 241.988L233.107 242.014Z" fill="#99A583"/>
<path d="M226.807 242.013L226.799 248.376L233.097 248.35L233.105 241.988L226.807 242.013Z" fill="#C6C624"/>
<path d="M220.507 242.013L220.499 248.376L226.797 248.35L226.805 241.988L220.507 242.013Z" fill="#C6C624"/>
<path d="M214.214 242.013L214.206 248.376L220.498 248.35L220.506 241.988L214.214 242.013Z" fill="#C6C624"/>
<path d="M377.918 248.406L377.91 254.762L384.202 254.736L384.21 248.38L377.918 248.406Z" fill="#4C6821"/>
<path d="M371.62 248.404L371.611 254.76L377.91 254.734L377.918 248.378L371.62 248.404Z" fill="#4C6821"/>
<path d="M365.32 248.406L365.312 254.762L371.61 254.736L371.618 248.38L365.32 248.406Z" fill="#4C6821"/>
<path d="M359.027 248.404L359.019 254.76L365.31 254.734L365.319 248.378L359.027 248.404Z" fill="#4C6821"/>
<path d="M352.727 248.404L352.719 254.76L359.017 254.734L359.025 248.378L352.727 248.404Z" fill="#99A583"/>
<path d="M346.435 248.406L346.427 254.762L352.718 254.736L352.727 248.38L346.435 248.406Z" fill="#99A583"/>
<path d="M340.136 248.404L340.128 254.76L346.426 254.734L346.434 248.378L340.136 248.404Z" fill="#4C6821"/>
<path d="M333.836 248.404L333.828 254.76L340.126 254.734L340.135 248.378L333.836 248.404Z" fill="#4C6821"/>
<path d="M327.543 248.406L327.535 254.762L333.827 254.736L333.835 248.38L327.543 248.406Z" fill="#99A583"/>
<path d="M321.244 248.404L321.235 254.76L327.534 254.734L327.542 248.378L321.244 248.404Z" fill="#979701"/>
<path d="M314.951 248.404L314.942 254.76L321.234 254.734L321.242 248.378L314.951 248.404Z" fill="#979701"/>
<path d="M308.651 248.404L308.643 254.76L314.941 254.734L314.949 248.378L308.651 248.404Z" fill="#466012"/>
<path d="M302.353 248.404L302.345 254.76L308.643 254.734L308.651 248.378L302.353 248.404Z" fill="#466012"/>
<path d="M296.06 248.404L296.052 254.76L302.344 254.734L302.352 248.378L296.06 248.404Z" fill="#466012"/>
<path d="M289.761 248.403L289.753 254.759L296.051 254.733L296.059 248.377L289.761 248.403Z" fill="#466012"/>
<path d="M283.467 248.404L283.459 254.76L289.751 254.734L289.759 248.378L283.467 248.404Z" fill="#466012"/>
<path d="M277.168 248.403L277.16 254.759L283.458 254.733L283.467 248.377L277.168 248.403Z" fill="#5C8E06"/>
<path d="M270.869 248.403L270.86 254.759L277.159 254.733L277.167 248.377L270.869 248.403Z" fill="#5C8E06"/>
<path d="M264.576 248.404L264.567 254.76L270.859 254.734L270.867 248.378L264.576 248.404Z" fill="#99A583"/>
<path d="M258.278 248.403L258.27 254.759L264.568 254.733L264.576 248.377L258.278 248.403Z" fill="#C6C624"/>
<path d="M251.978 248.403L251.97 254.759L258.268 254.733L258.276 248.377L251.978 248.403Z" fill="#C6C624"/>
<path d="M245.685 248.403L245.677 254.759L251.968 254.733L251.977 248.377L245.685 248.403Z" fill="#C6C624"/>
<path d="M239.385 248.403L239.377 254.759L245.675 254.733L245.683 248.377L239.385 248.403Z" fill="#C6C624"/>
<path d="M233.092 248.403L233.084 254.759L239.376 254.733L239.384 248.377L233.092 248.403Z" fill="#99A583"/>
<path d="M226.792 248.403L226.784 254.759L233.082 254.733L233.091 248.377L226.792 248.403Z" fill="#C6C624"/>
<path d="M220.494 248.403L220.485 254.759L226.784 254.733L226.792 248.377L220.494 248.403Z" fill="#C6C624"/>
<path d="M214.201 248.403L214.192 254.759L220.484 254.733L220.492 248.377L214.201 248.403Z" fill="#C6C624"/>
<path d="M377.905 254.789L377.896 261.151L384.188 261.126L384.196 254.763L377.905 254.789Z" fill="#4C6821"/>
<path d="M371.605 254.789L371.597 261.151L377.895 261.125L377.903 254.763L371.605 254.789Z" fill="#4C6821"/>
<path d="M365.305 254.787L365.297 261.149L371.595 261.124L371.603 254.761L365.305 254.787Z" fill="#4C6821"/>
<path d="M359.012 254.789L359.004 261.151L365.296 261.126L365.304 254.763L359.012 254.789Z" fill="#4C6821"/>
<path d="M352.714 254.789L352.706 261.151L359.004 261.126L359.012 254.763L352.714 254.789Z" fill="#4C6821"/>
<path d="M346.421 254.787L346.413 261.149L352.705 261.124L352.713 254.761L346.421 254.787Z" fill="#99A583"/>
<path d="M340.122 254.787L340.113 261.149L346.411 261.124L346.42 254.761L340.122 254.787Z" fill="#4C6821"/>
<path d="M333.823 254.787L333.814 261.149L340.113 261.124L340.121 254.761L333.823 254.787Z" fill="#4C6821"/>
<path d="M327.529 254.787L327.521 261.149L333.812 261.124L333.82 254.761L327.529 254.787Z" fill="#4C6821"/>
<path d="M321.23 254.787L321.222 261.149L327.52 261.124L327.528 254.761L321.23 254.787Z" fill="#3B5116"/>
<path d="M314.937 254.787L314.929 261.149L321.22 261.124L321.229 254.761L314.937 254.787Z" fill="#3B5116"/>
<path d="M308.637 254.787L308.629 261.149L314.927 261.124L314.935 254.761L308.637 254.787Z" fill="#466012"/>
<path d="M302.339 254.785L302.331 261.147L308.629 261.122L308.637 254.759L302.339 254.785Z" fill="#466012"/>
<path d="M296.046 254.787L296.038 261.149L302.33 261.124L302.338 254.761L296.046 254.787Z" fill="#466012"/>
<path d="M289.747 254.787L289.738 261.149L296.036 261.124L296.045 254.761L289.747 254.787Z" fill="#466012"/>
<path d="M283.454 254.787L283.445 261.149L289.737 261.124L289.745 254.761L283.454 254.787Z" fill="#466012"/>
<path d="M277.154 254.787L277.146 261.149L283.444 261.124L283.452 254.761L277.154 254.787Z" fill="#466012"/>
<path d="M270.855 254.787L270.847 261.149L277.145 261.124L277.153 254.761L270.855 254.787Z" fill="#466012"/>
<path d="M264.561 254.785L264.553 261.147L270.844 261.122L270.853 254.759L264.561 254.785Z" fill="#99A583"/>
<path d="M258.263 254.787L258.255 261.149L264.553 261.124L264.561 254.761L258.263 254.787Z" fill="#99A583"/>
<path d="M251.964 254.785L251.956 261.147L258.254 261.122L258.262 254.759L251.964 254.785Z" fill="#99A583"/>
<path d="M245.67 254.785L245.662 261.147L251.954 261.122L251.962 254.759L245.67 254.785Z" fill="#99A583"/>
<path d="M239.372 254.785L239.363 261.147L245.661 261.122L245.67 254.759L239.372 254.785Z" fill="#99A583"/>
<path d="M233.079 254.785L233.07 261.147L239.362 261.122L239.37 254.759L233.079 254.785Z" fill="#99A583"/>
<path d="M226.779 254.785L226.771 261.147L233.069 261.122L233.077 254.759L226.779 254.785Z" fill="#99A583"/>
<path d="M220.479 254.784L220.471 261.146L226.769 261.121L226.777 254.758L220.479 254.784Z" fill="#99A583"/>
<path d="M214.188 254.785L214.18 261.147L220.471 261.122L220.48 254.759L214.188 254.785Z" fill="#99A583"/>
<path d="M377.892 261.177L377.884 267.539L384.176 267.513L384.184 261.151L377.892 261.177Z" fill="#4C6821"/>
<path d="M371.592 261.177L371.584 267.539L377.882 267.513L377.89 261.151L371.592 261.177Z" fill="#4C6821"/>
<path d="M365.291 261.178L365.283 267.54L371.581 267.514L371.59 261.152L365.291 261.178Z" fill="#4C6821"/>
<path d="M358.999 261.177L358.991 267.539L365.283 267.513L365.291 261.151L358.999 261.177Z" fill="#4C6821"/>
<path d="M352.701 261.177L352.692 267.539L358.991 267.513L358.999 261.151L352.701 261.177Z" fill="#4C6821"/>
<path d="M346.407 261.177L346.398 267.539L352.69 267.513L352.698 261.151L346.407 261.177Z" fill="#99A583"/>
<path d="M340.108 261.177L340.1 267.539L346.398 267.513L346.406 261.151L340.108 261.177Z" fill="#4C6821"/>
<path d="M333.808 261.177L333.8 267.539L340.098 267.513L340.106 261.151L333.808 261.177Z" fill="#4C6821"/>
<path d="M327.515 261.177L327.507 267.539L333.799 267.513L333.807 261.151L327.515 261.177Z" fill="#4C6821"/>
<path d="M321.215 261.177L321.207 267.539L327.505 267.513L327.513 261.151L321.215 261.177Z" fill="#3B5116"/>
<path d="M314.924 261.175L314.916 267.537L321.208 267.511L321.216 261.149L314.924 261.175Z" fill="#3B5116"/>
<path d="M308.624 261.175L308.616 267.537L314.914 267.511L314.923 261.149L308.624 261.175Z" fill="white"/>
<path d="M302.325 261.177L302.316 267.539L308.615 267.513L308.623 261.151L302.325 261.177Z" fill="white"/>
<path d="M296.032 261.175L296.023 267.537L302.315 267.511L302.323 261.149L296.032 261.175Z" fill="white"/>
<path d="M289.733 261.175L289.725 267.537L296.023 267.511L296.031 261.149L289.733 261.175Z" fill="white"/>
<path d="M283.439 261.175L283.431 267.537L289.722 267.511L289.731 261.149L283.439 261.175Z" fill="white"/>
<path d="M277.14 261.175L277.132 267.537L283.43 267.511L283.438 261.149L277.14 261.175Z" fill="white"/>
<path d="M270.84 261.175L270.832 267.537L277.13 267.511L277.138 261.149L270.84 261.175Z" fill="white"/>
<path d="M264.548 261.175L264.54 267.537L270.832 267.511L270.84 261.149L264.548 261.175Z" fill="#99A583"/>
<path d="M258.249 261.175L258.241 267.537L264.539 267.511L264.548 261.149L258.249 261.175Z" fill="#4C6821"/>
<path d="M251.95 261.175L251.941 267.537L258.24 267.511L258.248 261.149L251.95 261.175Z" fill="#4C6821"/>
<path d="M245.657 261.175L245.648 267.537L251.94 267.511L251.948 261.149L245.657 261.175Z" fill="#4C6821"/>
<path d="M239.357 261.175L239.349 267.537L245.647 267.511L245.655 261.149L239.357 261.175Z" fill="#4C6821"/>
<path d="M233.064 261.173L233.056 267.535L239.347 267.509L239.356 261.147L233.064 261.173Z" fill="#99A583"/>
<path d="M226.764 261.173L226.756 267.535L233.054 267.509L233.062 261.147L226.764 261.173Z" fill="#C5AD26"/>
<path d="M220.466 261.175L220.458 267.537L226.756 267.511L226.764 261.149L220.466 261.175Z" fill="#C5AD26"/>
<path d="M214.173 261.173L214.165 267.535L220.457 267.509L220.465 261.147L214.173 261.173Z" fill="#C5AD26"/>
<path d="M377.877 267.566L377.869 273.922L384.161 273.896L384.169 267.54L377.877 267.566Z" fill="#4C6821"/>
<path d="M371.579 267.566L371.57 273.922L377.869 273.896L377.877 267.54L371.579 267.566Z" fill="#4C6821"/>
<path d="M365.279 267.566L365.271 273.922L371.569 273.896L371.577 267.54L365.279 267.566Z" fill="#4C6821"/>
<path d="M358.986 267.564L358.978 273.92L365.269 273.894L365.278 267.538L358.986 267.564Z" fill="#4C6821"/>
<path d="M352.686 267.566L352.678 273.922L358.976 273.896L358.984 267.54L352.686 267.566Z" fill="#4C6821"/>
<path d="M346.393 267.564L346.385 273.92L352.676 273.894L352.685 267.538L346.393 267.564Z" fill="#99A583"/>
<path d="M340.095 267.564L340.087 273.92L346.385 273.894L346.393 267.538L340.095 267.564Z" fill="#4C6821"/>
<path d="M333.795 267.564L333.787 273.92L340.085 273.894L340.093 267.538L333.795 267.564Z" fill="#4C6821"/>
<path d="M327.502 267.564L327.494 273.92L333.786 273.894L333.794 267.538L327.502 267.564Z" fill="#4C6821"/>
<path d="M321.203 267.564L321.194 273.92L327.493 273.894L327.501 267.538L321.203 267.564Z" fill="#3B5116"/>
<path d="M314.91 267.564L314.901 273.92L321.193 273.894L321.201 267.538L314.91 267.564Z" fill="#3B5116"/>
<path d="M308.611 267.564L308.603 273.92L314.901 273.894L314.909 267.538L308.611 267.564Z" fill="white"/>
<path d="M302.311 267.564L302.303 273.92L308.601 273.894L308.609 267.538L302.311 267.564Z" fill="white"/>
<path d="M296.018 267.564L296.01 273.92L302.301 273.894L302.31 267.538L296.018 267.564Z" fill="white"/>
<path d="M289.718 267.564L289.71 273.92L296.008 273.894L296.016 267.538L289.718 267.564Z" fill="#EFEFEF"/>
<path d="M283.425 267.562L283.417 273.918L289.709 273.892L289.717 267.536L283.425 267.562Z" fill="white"/>
<path d="M277.125 267.562L277.117 273.918L283.415 273.892L283.424 267.536L277.125 267.562Z" fill="white"/>
<path d="M270.828 267.564L270.819 273.92L277.118 273.894L277.126 267.538L270.828 267.564Z" fill="white"/>
<path d="M264.535 267.562L264.526 273.918L270.818 273.892L270.826 267.536L264.535 267.562Z" fill="#4C6821"/>
<path d="M258.235 267.562L258.227 273.918L264.525 273.892L264.533 267.536L258.235 267.562Z" fill="#4C6821"/>
<path d="M251.936 267.562L251.928 273.918L258.226 273.892L258.234 267.536L251.936 267.562Z" fill="#4C6821"/>
<path d="M245.642 267.562L245.634 273.918L251.926 273.892L251.934 267.536L245.642 267.562Z" fill="#4C6821"/>
<path d="M239.343 267.562L239.335 273.918L245.633 273.892L245.641 267.536L239.343 267.562Z" fill="#4C6821"/>
<path d="M233.05 267.562L233.042 273.918L239.334 273.892L239.342 267.536L233.05 267.562Z" fill="#99A583"/>
<path d="M226.752 267.562L226.744 273.918L233.042 273.892L233.051 267.536L226.752 267.562Z" fill="#C5AD26"/>
<path d="M220.453 267.562L220.444 273.918L226.743 273.892L226.751 267.536L220.453 267.562Z" fill="#C5AD26"/>
<path d="M214.16 267.562L214.151 273.918L220.443 273.892L220.451 267.536L214.16 267.562Z" fill="#C5AD26"/>
<path d="M377.864 273.948L377.855 280.311L384.147 280.285L384.155 273.922L377.864 273.948Z" fill="#4C6821"/>
<path d="M371.564 273.947L371.556 280.31L377.854 280.284L377.862 273.921L371.564 273.947Z" fill="#4C6821"/>
<path d="M365.265 273.947L365.257 280.31L371.555 280.284L371.563 273.921L365.265 273.947Z" fill="#4C6821"/>
<path d="M358.971 273.948L358.963 280.311L365.255 280.285L365.263 273.922L358.971 273.948Z" fill="#4C6821"/>
<path d="M352.672 273.947L352.664 280.31L358.962 280.284L358.97 273.921L352.672 273.947Z" fill="#4C6821"/>
<path d="M346.38 273.948L346.372 280.311L352.664 280.285L352.672 273.922L346.38 273.948Z" fill="#99A583"/>
<path d="M340.08 273.947L340.072 280.31L346.37 280.284L346.379 273.921L340.08 273.947Z" fill="#4C6821"/>
<path d="M333.782 273.947L333.773 280.31L340.072 280.284L340.08 273.921L333.782 273.947Z" fill="#4C6821"/>
<path d="M327.489 273.947L327.48 280.31L333.772 280.284L333.78 273.921L327.489 273.947Z" fill="#4C6821"/>
<path d="M321.189 273.947L321.181 280.31L327.479 280.284L327.487 273.921L321.189 273.947Z" fill="#3B5116"/>
<path d="M314.896 273.947L314.888 280.31L321.179 280.284L321.188 273.921L314.896 273.947Z" fill="#3B5116"/>
<path d="M308.596 273.945L308.588 280.308L314.886 280.282L314.894 273.919L308.596 273.945Z" fill="white"/>
<path d="M302.296 273.945L302.288 280.308L308.586 280.282L308.595 273.919L302.296 273.945Z" fill="white"/>
<path d="M296.003 273.947L295.995 280.31L302.287 280.284L302.295 273.921L296.003 273.947Z" fill="white"/>
<path d="M289.705 273.945L289.696 280.308L295.994 280.282L296.003 273.919L289.705 273.945Z" fill="#EFEFEF"/>
<path d="M283.411 273.947L283.402 280.31L289.694 280.284L289.702 273.921L283.411 273.947Z" fill="white"/>
<path d="M277.113 273.947L277.104 280.31L283.403 280.284L283.411 273.921L277.113 273.947Z" fill="white"/>
<path d="M270.814 273.945L270.806 280.308L277.104 280.282L277.112 273.919L270.814 273.945Z" fill="white"/>
<path d="M264.52 273.947L264.512 280.31L270.803 280.284L270.812 273.921L264.52 273.947Z" fill="#4C6821"/>
<path d="M258.221 273.945L258.213 280.308L264.511 280.282L264.519 273.919L258.221 273.945Z" fill="#4C6821"/>
<path d="M251.921 273.945L251.913 280.308L258.211 280.282L258.219 273.919L251.921 273.945Z" fill="#4C6821"/>
<path d="M245.628 273.945L245.62 280.308L251.912 280.282L251.92 273.919L245.628 273.945Z" fill="#4C6821"/>
<path d="M239.329 273.945L239.32 280.308L245.619 280.282L245.627 273.919L239.329 273.945Z" fill="#4C6821"/>
<path d="M233.038 273.945L233.029 280.308L239.321 280.282L239.329 273.919L233.038 273.945Z" fill="#99A583"/>
<path d="M226.738 273.943L226.729 280.306L233.028 280.28L233.036 273.917L226.738 273.943Z" fill="#C5AD26"/>
<path d="M220.438 273.945L220.43 280.308L226.728 280.282L226.736 273.919L220.438 273.945Z" fill="#C5AD26"/>
<path d="M214.145 273.945L214.137 280.308L220.428 280.282L220.437 273.919L214.145 273.945Z" fill="#C5AD26"/>
<path d="M377.849 280.336L377.841 286.698L384.133 286.672L384.141 280.31L377.849 280.336Z" fill="#4C6821"/>
<path d="M371.55 280.338L371.542 286.7L377.84 286.674L377.848 280.312L371.55 280.338Z" fill="#4C6821"/>
<path d="M365.25 280.336L365.242 286.698L371.54 286.672L371.549 280.31L365.25 280.336Z" fill="#4C6821"/>
<path d="M358.957 280.336L358.949 286.698L365.241 286.672L365.249 280.31L358.957 280.336Z" fill="#4C6821"/>
<path d="M352.658 280.336L352.649 286.698L358.948 286.672L358.956 280.31L352.658 280.336Z" fill="#4C6821"/>
<path d="M346.367 280.336L346.358 286.698L352.65 286.672L352.658 280.31L346.367 280.336Z" fill="#99A583"/>
<path d="M340.067 280.336L340.059 286.698L346.357 286.672L346.365 280.31L340.067 280.336Z" fill="#4C6821"/>
<path d="M333.767 280.336L333.759 286.698L340.057 286.672L340.065 280.31L333.767 280.336Z" fill="#4C6821"/>
<path d="M327.474 280.336L327.466 286.698L333.758 286.672L333.766 280.31L327.474 280.336Z" fill="#4C6821"/>
<path d="M321.174 280.336L321.166 286.698L327.464 286.672L327.472 280.31L321.174 280.336Z" fill="#3B5116"/>
<path d="M314.881 280.336L314.873 286.698L321.165 286.672L321.173 280.31L314.881 280.336Z" fill="#3B5116"/>
<path d="M308.582 280.336L308.574 286.698L314.872 286.672L314.881 280.31L308.582 280.336Z" fill="white"/>
<path d="M302.283 280.336L302.274 286.698L308.573 286.672L308.581 280.31L302.283 280.336Z" fill="white"/>
<path d="M295.99 280.335L295.981 286.697L302.273 286.671L302.281 280.309L295.99 280.335Z" fill="white"/>
<path d="M289.69 280.336L289.682 286.698L295.98 286.672L295.988 280.31L289.69 280.336Z" fill="#EFEFEF"/>
<path d="M283.398 280.335L283.39 286.697L289.681 286.671L289.69 280.309L283.398 280.335Z" fill="white"/>
<path d="M277.099 280.335L277.091 286.697L283.389 286.671L283.397 280.309L277.099 280.335Z" fill="white"/>
<path d="M270.799 280.335L270.791 286.697L277.089 286.671L277.097 280.309L270.799 280.335Z" fill="white"/>
<path d="M264.506 280.335L264.498 286.697L270.79 286.671L270.798 280.309L264.506 280.335Z" fill="#4C6821"/>
<path d="M258.206 280.335L258.198 286.697L264.496 286.671L264.505 280.309L258.206 280.335Z" fill="#4C6821"/>
<path d="M251.908 280.333L251.899 286.695L258.198 286.669L258.206 280.307L251.908 280.333Z" fill="#4C6821"/>
<path d="M245.614 280.335L245.605 286.697L251.897 286.671L251.905 280.309L245.614 280.335Z" fill="#4C6821"/>
<path d="M239.315 280.335L239.307 286.697L245.605 286.671L245.613 280.309L239.315 280.335Z" fill="#4C6821"/>
<path d="M233.023 280.335L233.015 286.697L239.306 286.671L239.315 280.309L233.023 280.335Z" fill="#99A583"/>
<path d="M226.724 280.335L226.716 286.697L233.014 286.671L233.022 280.309L226.724 280.335Z" fill="#C5AD26"/>
<path d="M220.424 280.335L220.416 286.697L226.714 286.671L226.722 280.309L220.424 280.335Z" fill="#C5AD26"/>
<path d="M214.131 280.333L214.123 286.695L220.415 286.669L220.423 280.307L214.131 280.333Z" fill="#C5AD26"/>
<path d="M377.835 286.725L377.827 293.081L384.119 293.055L384.127 286.699L377.835 286.725Z" fill="#4C6821"/>
<path d="M371.536 286.725L371.527 293.081L377.826 293.055L377.834 286.699L371.536 286.725Z" fill="#4C6821"/>
<path d="M365.236 286.725L365.228 293.081L371.526 293.055L371.534 286.699L365.236 286.725Z" fill="#4C6821"/>
<path d="M358.945 286.725L358.937 293.081L365.228 293.055L365.237 286.699L358.945 286.725Z" fill="#4C6821"/>
<path d="M352.645 286.725L352.637 293.081L358.935 293.055L358.943 286.699L352.645 286.725Z" fill="#4C6821"/>
<path d="M346.352 286.724L346.344 293.08L352.635 293.054L352.644 286.698L346.352 286.724Z" fill="#99A583"/>
<path d="M340.052 286.725L340.044 293.081L346.342 293.055L346.35 286.699L340.052 286.725Z" fill="#4C6821"/>
<path d="M333.753 286.725L333.745 293.081L340.043 293.055L340.051 286.699L333.753 286.725Z" fill="#4C6821"/>
<path d="M327.46 286.724L327.452 293.08L333.744 293.054L333.752 286.698L327.46 286.724Z" fill="#4C6821"/>
<path d="M321.161 286.724L321.152 293.08L327.451 293.054L327.459 286.698L321.161 286.724Z" fill="#3B5116"/>
<path d="M314.869 286.724L314.86 293.08L321.152 293.054L321.16 286.698L314.869 286.724Z" fill="#3B5116"/>
<path d="M308.57 286.724L308.562 293.08L314.86 293.054L314.868 286.698L308.57 286.724Z" fill="white"/>
<path d="M302.27 286.724L302.262 293.08L308.56 293.054L308.568 286.698L302.27 286.724Z" fill="white"/>
<path d="M295.977 286.724L295.969 293.08L302.26 293.054L302.269 286.698L295.977 286.724Z" fill="#EFEFEF"/>
<path d="M289.677 286.724L289.669 293.08L295.967 293.054L295.975 286.698L289.677 286.724Z" fill="#EFEFEF"/>
<path d="M283.384 286.724L283.376 293.08L289.668 293.054L289.676 286.698L283.384 286.724Z" fill="white"/>
<path d="M277.084 286.724L277.076 293.08L283.374 293.054L283.383 286.698L277.084 286.724Z" fill="white"/>
<path d="M270.786 286.724L270.777 293.08L277.076 293.054L277.084 286.698L270.786 286.724Z" fill="white"/>
<path d="M264.492 286.722L264.483 293.078L270.775 293.052L270.783 286.696L264.492 286.722Z" fill="#4C6821"/>
<path d="M258.193 286.724L258.185 293.08L264.483 293.054L264.491 286.698L258.193 286.724Z" fill="#4C6821"/>
<path d="M251.893 286.724L251.885 293.08L258.183 293.054L258.191 286.698L251.893 286.724Z" fill="#4C6821"/>
<path d="M245.6 286.722L245.592 293.078L251.884 293.052L251.892 286.696L245.6 286.722Z" fill="#4C6821"/>
<path d="M239.302 286.722L239.294 293.078L245.592 293.052L245.6 286.696L239.302 286.722Z" fill="#4C6821"/>
<path d="M233.009 286.722L233.001 293.078L239.293 293.052L239.301 286.696L233.009 286.722Z" fill="#99A583"/>
<path d="M226.709 286.722L226.701 293.078L232.999 293.052L233.008 286.696L226.709 286.722Z" fill="#C5AD26"/>
<path d="M220.41 286.722L220.401 293.078L226.7 293.052L226.708 286.696L220.41 286.722Z" fill="#C5AD26"/>
<path d="M214.117 286.722L214.108 293.078L220.4 293.052L220.408 286.696L214.117 286.722Z" fill="#C5AD26"/>
<path d="M377.821 293.106L377.812 299.469L384.104 299.443L384.112 293.08L377.821 293.106Z" fill="#4C6821"/>
<path d="M371.522 293.106L371.514 299.469L377.812 299.443L377.82 293.08L371.522 293.106Z" fill="#4C6821"/>
<path d="M365.224 293.108L365.216 299.471L371.514 299.445L371.522 293.082L365.224 293.108Z" fill="#4C6821"/>
<path d="M358.93 293.106L358.922 299.469L365.214 299.443L365.222 293.08L358.93 293.106Z" fill="#4C6821"/>
<path d="M352.631 293.106L352.623 299.469L358.921 299.443L358.929 293.08L352.631 293.106Z" fill="#4C6821"/>
<path d="M346.338 293.106L346.33 299.469L352.622 299.443L352.63 293.08L346.338 293.106Z" fill="#99A583"/>
<path d="M340.039 293.106L340.03 299.469L346.328 299.443L346.337 293.08L340.039 293.106Z" fill="#4C6821"/>
<path d="M333.739 293.106L333.73 299.469L340.029 299.443L340.037 293.08L333.739 293.106Z" fill="#4C6821"/>
<path d="M327.446 293.106L327.438 299.469L333.729 299.443L333.737 293.08L327.446 293.106Z" fill="#4C6821"/>
<path d="M321.146 293.106L321.138 299.469L327.436 299.443L327.444 293.08L321.146 293.106Z" fill="#3B5116"/>
<path d="M314.855 293.105L314.847 299.468L321.138 299.442L321.147 293.079L314.855 293.105Z" fill="#3B5116"/>
<path d="M308.555 293.106L308.547 299.469L314.845 299.443L314.853 293.08L308.555 293.106Z" fill="white"/>
<path d="M302.255 293.106L302.247 299.469L308.545 299.443L308.553 293.08L302.255 293.106Z" fill="white"/>
<path d="M295.962 293.105L295.954 299.468L302.246 299.442L302.254 293.079L295.962 293.105Z" fill="#EFEFEF"/>
<path d="M289.663 293.105L289.655 299.468L295.953 299.442L295.962 293.079L289.663 293.105Z" fill="#EFEFEF"/>
<path d="M283.37 293.106L283.361 299.469L289.653 299.443L289.661 293.08L283.37 293.106Z" fill="white"/>
<path d="M277.072 293.105L277.063 299.468L283.362 299.442L283.37 293.079L277.072 293.105Z" fill="white"/>
<path d="M270.771 293.105L270.763 299.468L277.061 299.442L277.069 293.079L270.771 293.105Z" fill="white"/>
<path d="M264.478 293.105L264.47 299.468L270.761 299.442L270.77 293.079L264.478 293.105Z" fill="#4C6821"/>
<path d="M258.178 293.105L258.17 299.468L264.468 299.442L264.476 293.079L258.178 293.105Z" fill="#4C6821"/>
<path d="M251.88 293.105L251.872 299.468L258.17 299.442L258.178 293.079L251.88 293.105Z" fill="#4C6821"/>
<path d="M245.587 293.105L245.579 299.468L251.871 299.442L251.879 293.079L245.587 293.105Z" fill="#4C6821"/>
<path d="M239.288 293.105L239.279 299.468L245.577 299.442L245.586 293.079L239.288 293.105Z" fill="#4C6821"/>
<path d="M232.995 293.103L232.986 299.466L239.278 299.44L239.286 293.077L232.995 293.103Z" fill="#99A583"/>
<path d="M226.696 293.105L226.688 299.468L232.986 299.442L232.994 293.079L226.696 293.105Z" fill="#C5AD26"/>
<path d="M220.396 293.105L220.388 299.468L226.686 299.442L226.694 293.079L220.396 293.105Z" fill="#C5AD26"/>
</g>
<path fill-rule="evenodd" clip-rule="evenodd" d="M297.297 29.4802L236.674 29.479L236.668 32.1705L297.291 32.1717L297.297 29.4802ZM234.002 32.171L299.955 32.1723L299.816 96.0966L294.487 96.0965L294.487 96.0977L297.151 96.0978L297.151 96.0976L299.816 96.0977L299.81 98.7892L299.81 98.7892L299.804 101.48L299.804 101.48L299.798 104.17L299.799 104.17L299.799 104.172L302.463 104.172L302.457 106.863L299.792 106.863L299.792 106.862L297.128 106.862L297.134 104.171L297.134 104.171L297.134 104.172L294.469 104.172L294.475 101.481L297.139 101.481L297.139 101.48L294.475 101.48L294.481 98.7893L294.481 98.7893L294.481 98.7877L291.817 98.7877L289.152 98.7876L289.158 96.0964L233.862 96.0953L233.868 93.404L231.204 93.4039L231.318 40.9187L231.319 40.9187L231.324 38.2279L233.989 38.228L233.989 38.2272L231.325 38.2271L231.331 35.5356L233.994 35.5356L234.002 32.171ZM299.949 34.8633L302.614 34.8633L302.484 94.7503L299.819 94.7503L299.949 34.8633ZM294.48 98.7885L291.816 98.7884L291.81 101.48L294.475 101.48L294.48 98.7885Z" fill="white"/>
<g clip-path="url(#clip0_301_3548)">
<path d="M281.146 72.5987L279.115 72.5986L279.111 74.7178L279.106 76.8391L281.136 76.8391L283.167 76.8392L283.171 74.7179L283.176 72.5987L281.146 72.5987Z" fill="#D9E0A2"/>
<path d="M268.968 72.5987L266.939 72.5986L266.935 74.7178L266.93 76.8391L268.958 76.8391L270.989 76.8392L273.019 76.8392L273.024 74.7179L273.028 72.5988L270.998 72.5987L268.968 72.5987Z" fill="#D9E0A2"/>
<path d="M258.82 72.5987L256.792 72.5986L256.787 74.7178L256.783 76.8391L258.811 76.8391L260.841 76.8392L262.871 76.8392L262.876 74.7179L262.881 72.5988L260.85 72.5987L258.82 72.5987Z" fill="#D9E0A2"/>
<path d="M277.151 42.9113L275.121 42.9112L275.116 45.0325L273.088 45.0325L271.058 45.0324L271.053 47.1538L273.084 47.1538L273.079 49.2729L275.107 49.273L275.112 47.1538L277.142 47.1539L279.17 47.1539L279.175 45.0326L279.179 42.9113L277.151 42.9113Z" fill="#79A9BA"/>
<path d="M266.99 49.2725L266.986 51.3938L269.014 51.3938L271.044 51.3939L271.049 49.2725L269.018 49.2725L266.99 49.2725Z" fill="#79A9BA"/>
<path d="M258.866 51.3936L256.838 51.3936L256.833 53.5127L256.829 55.634L258.857 55.634L260.887 55.6341L260.892 53.5128L262.922 53.5128L262.927 51.3937L260.896 51.3936L258.866 51.3936Z" fill="#79A9BA"/>
<path d="M250.745 53.5127L250.74 55.634L252.769 55.634L254.799 55.6341L254.804 53.5128L252.773 53.5127L250.745 53.5127Z" fill="#79A9BA"/>
<path d="M285.208 70.4776L285.222 64.1159L283.193 64.1158L283.226 49.2731L281.196 49.2731L281.191 51.3944L279.161 51.3944L279.133 64.1157L277.105 64.1157L277.091 70.4775L275.061 70.4774L275.074 64.1157L271.016 64.1156L271.011 66.2369L268.981 66.2368L268.976 68.3582L266.948 68.3581L266.944 70.4773L262.885 70.4772L262.899 64.1154L258.838 64.1153L258.834 66.2367L256.806 66.2366L256.801 68.3579L254.767 68.3579L254.762 70.477L252.736 70.477L252.713 81.0792L248.654 81.0791L248.65 83.2004L287.21 83.2012L287.238 70.4777L285.208 70.4776ZM283.17 74.718L283.166 76.8394L279.105 76.8393L279.114 72.5988L283.175 72.5989L283.17 74.718ZM268.967 72.5986L273.028 72.5987L273.019 76.8392L266.93 76.839L266.939 72.5986L268.967 72.5986ZM262.876 74.7176L262.871 76.839L256.783 76.8388L256.792 72.5984L262.881 72.5985L262.876 74.7176Z" fill="#107393"/>
<path d="M283.23 47.1543L281.2 47.1543L281.196 49.2734L283.226 49.2735L283.23 47.1543Z" fill="#A9CBDA"/>
<path d="M275.13 38.6705L273.102 38.6704L271.071 38.6704L271.067 40.7917L269.036 40.7917L269.041 38.6703L267.013 38.6703L267.017 36.549L264.987 36.5489L262.959 36.5489L262.954 38.6702L260.924 38.6702L260.919 40.7915L258.889 40.7915L258.885 42.9106L260.915 42.9106L260.91 45.0319L262.94 45.032L264.969 45.032L264.964 47.1533L264.959 49.2725L266.99 49.2725L269.018 49.2726L271.048 49.2726L273.078 49.2726L273.083 47.1535L271.053 47.1535L271.057 45.0321L273.088 45.0322L275.116 45.0322L275.121 42.9109L277.151 42.911L277.155 40.7918L275.125 40.7918L275.13 38.6705Z" fill="#A9CBDA"/>
<path d="M256.852 45.0324L254.822 45.0324L254.817 47.1537L252.787 47.1537L252.783 49.2728L250.754 49.2728L250.759 47.1536L248.729 47.1536L246.7 47.1535L246.696 49.2727L246.691 51.394L248.719 51.394L248.715 53.5132L250.745 53.5132L252.773 53.5133L254.804 53.5133L256.834 53.5133L256.838 51.3942L258.867 51.3942L260.897 51.3943L262.927 51.3943L262.932 49.273L260.902 49.273L260.906 47.1538L260.911 45.0325L258.88 45.0325L256.852 45.0324Z" fill="#A9CBDA"/>
</g>
<g clip-path="url(#clip1_301_3548)">
<path d="M353.597 128.832L348.334 128.832L348.322 134.106L353.585 134.106L353.597 128.832Z" fill="#8D5F10"/>
<path d="M348.289 149.924L343.031 149.924L343.02 155.193L348.277 155.193L348.289 149.924Z" fill="black"/>
<path d="M348.299 144.65L343.042 144.649L343.03 149.924L348.288 149.924L348.299 144.65Z" fill="black"/>
<path d="M348.311 139.376L343.054 139.376L343.042 144.65L348.3 144.65L348.311 139.376Z" fill="black"/>
<path d="M348.323 134.107L343.065 134.106L343.054 139.375L348.311 139.375L348.323 134.107Z" fill="black"/>
<path d="M348.335 128.832L343.077 128.832L343.066 134.106L348.323 134.106L348.335 128.832Z" fill="#8D5F10"/>
<path d="M348.345 123.564L343.088 123.563L343.076 128.832L348.334 128.832L348.345 123.564Z" fill="#8D5F10"/>
<path d="M342.974 176.284L337.711 176.284L337.699 181.553L342.962 181.553L342.974 176.284Z" fill="#D8B071"/>
<path d="M342.984 171.011L337.722 171.011L337.71 176.285L342.973 176.285L342.984 171.011Z" fill="#D8B071"/>
<path d="M343.02 155.193L337.757 155.193L337.745 160.468L343.008 160.468L343.02 155.193Z" fill="#1E1A16"/>
<path d="M343.031 149.924L337.769 149.924L337.757 155.193L343.02 155.193L343.031 149.924Z" fill="black"/>
<path d="M343.042 144.65L337.779 144.649L337.768 149.924L343.031 149.924L343.042 144.65Z" fill="#D8B071"/>
<path d="M343.054 139.375L337.791 139.375L337.78 144.649L343.042 144.649L343.054 139.375Z" fill="black"/>
<path d="M343.065 134.107L337.803 134.106L337.791 139.375L343.054 139.375L343.065 134.107Z" fill="black"/>
<path d="M343.077 128.832L337.814 128.832L337.803 134.106L343.066 134.106L343.077 128.832Z" fill="#8D5F10"/>
<path d="M343.088 123.564L337.825 123.563L337.814 128.832L343.076 128.832L343.088 123.564Z" fill="#8D5F10"/>
<path d="M343.1 118.289L337.837 118.289L337.825 123.563L343.088 123.563L343.1 118.289Z" fill="#8D5F10"/>
<path d="M337.688 186.828L332.431 186.828L332.419 192.102L337.677 192.103L337.688 186.828Z" fill="#4C4945"/>
<path d="M337.699 181.554L332.441 181.554L332.43 186.828L337.687 186.828L337.699 181.554Z" fill="#4C4945"/>
<path d="M337.71 176.284L332.453 176.284L332.442 181.553L337.699 181.553L337.71 176.284Z" fill="#D8B071"/>
<path d="M337.722 171.01L332.465 171.01L332.453 176.284L337.711 176.284L337.722 171.01Z" fill="#D8B071"/>
<path d="M337.734 165.741L332.477 165.741L332.465 171.01L337.722 171.01L337.734 165.741Z" fill="#1E1A16"/>
<path d="M337.745 160.467L332.487 160.467L332.476 165.741L337.733 165.741L337.745 160.467Z" fill="#1E1A16"/>
<path d="M337.756 155.192L332.499 155.192L332.488 160.467L337.745 160.467L337.756 155.192Z" fill="#1E1A16"/>
<path d="M337.768 149.924L332.511 149.924L332.499 155.193L337.757 155.193L337.768 149.924Z" fill="#D8B071"/>
<path d="M337.78 144.65L332.522 144.649L332.511 149.924L337.768 149.924L337.78 144.65Z" fill="#D8B071"/>
<path d="M337.792 139.375L332.534 139.375L332.523 144.649L337.78 144.649L337.792 139.375Z" fill="#F2D7A2"/>
<path d="M337.802 134.107L332.545 134.106L332.533 139.375L337.791 139.375L337.802 134.107Z" fill="black"/>
<path d="M337.814 128.832L332.557 128.832L332.545 134.106L337.803 134.106L337.814 128.832Z" fill="#8D5F10"/>
<path d="M337.826 123.564L332.568 123.563L332.557 128.832L337.814 128.832L337.826 123.564Z" fill="#8D5F10"/>
<path d="M337.837 118.289L332.58 118.289L332.569 123.563L337.826 123.563L337.837 118.289Z" fill="#8D5F10"/>
<path d="M337.848 113.015L332.591 113.015L332.579 118.289L337.837 118.289L337.848 113.015Z" fill="#8D5F10"/>
<path d="M332.419 192.102L327.156 192.102L327.145 197.37L332.408 197.371L332.419 192.102Z" fill="#1E1A16"/>
<path d="M332.431 186.827L327.168 186.827L327.156 192.101L332.419 192.102L332.431 186.827Z" fill="#4C4945"/>
<path d="M332.441 181.554L327.179 181.554L327.167 186.828L332.43 186.828L332.441 181.554Z" fill="#4C4945"/>
<path d="M332.453 176.284L327.19 176.284L327.179 181.553L332.442 181.553L332.453 176.284Z" fill="#F7EEE4"/>
<path d="M332.465 171.01L327.202 171.01L327.191 176.284L332.453 176.284L332.465 171.01Z" fill="#F7EEE4"/>
<path d="M332.477 165.741L327.214 165.741L327.202 171.01L332.465 171.01L332.477 165.741Z" fill="#F7EEE4"/>
<path d="M332.487 160.467L327.225 160.467L327.213 165.741L332.476 165.741L332.487 160.467Z" fill="#F7EEE4"/>
<path d="M332.499 155.192L327.236 155.192L327.225 160.467L332.488 160.467L332.499 155.192Z" fill="#D8B071"/>
<path d="M332.511 149.924L327.248 149.924L327.237 155.193L332.499 155.193L332.511 149.924Z" fill="#D8B071"/>
<path d="M332.523 144.65L327.26 144.649L327.248 149.924L332.511 149.924L332.523 144.65Z" fill="#F2D7A2"/>
<path d="M332.533 139.375L327.271 139.375L327.259 144.649L332.522 144.649L332.533 139.375Z" fill="#F2D7A2"/>
<path d="M332.545 134.107L327.282 134.106L327.271 139.375L332.533 139.375L332.545 134.107Z" fill="#F2D7A2"/>
<path d="M332.557 128.832L327.294 128.832L327.282 134.106L332.545 134.106L332.557 128.832Z" fill="#8D5F10"/>
<path d="M332.568 123.564L327.306 123.563L327.294 128.832L332.557 128.832L332.568 123.564Z" fill="#8D5F10"/>
<path d="M332.58 118.289L327.317 118.289L327.306 123.563L332.569 123.563L332.58 118.289Z" fill="#8D5F10"/>
<path d="M332.591 113.015L327.328 113.015L327.317 118.289L332.579 118.289L332.591 113.015Z" fill="#8D5F10"/>
<path d="M332.603 107.746L327.34 107.746L327.328 113.015L332.591 113.015L332.603 107.746Z" fill="#8D5F10"/>
<path d="M327.168 186.827L321.905 186.827L321.894 192.101L327.157 192.102L327.168 186.827Z" fill="#4C4945"/>
<path d="M327.179 181.553L321.916 181.553L321.905 186.827L327.167 186.827L327.179 181.553Z" fill="#4C4945"/>
<path d="M327.19 176.284L321.928 176.284L321.916 181.553L327.179 181.553L327.19 176.284Z" fill="#F7EEE4"/>
<path d="M327.202 171.01L321.939 171.01L321.928 176.284L327.191 176.284L327.202 171.01Z" fill="#F7EEE4"/>
<path d="M327.214 165.741L321.951 165.741L321.94 171.01L327.202 171.01L327.214 165.741Z" fill="#F7EEE4"/>
<path d="M327.225 160.467L321.962 160.467L321.95 165.741L327.213 165.741L327.225 160.467Z" fill="#E0CFBF"/>
<path d="M327.236 155.192L321.974 155.192L321.962 160.467L327.225 160.467L327.236 155.192Z" fill="#F2D7A2"/>
<path d="M327.248 149.924L321.985 149.924L321.974 155.193L327.237 155.193L327.248 149.924Z" fill="#F2D7A2"/>
<path d="M327.26 144.65L321.997 144.649L321.986 149.924L327.248 149.924L327.26 144.65Z" fill="black"/>
<path d="M327.271 139.375L322.008 139.375L321.996 144.649L327.259 144.649L327.271 139.375Z" fill="black"/>
<path d="M327.282 134.107L322.02 134.106L322.008 139.375L327.271 139.375L327.282 134.107Z" fill="#F2D7A2"/>
<path d="M327.294 128.832L322.031 128.832L322.02 134.106L327.283 134.106L327.294 128.832Z" fill="#8D5F10"/>
<path d="M327.306 123.564L322.043 123.563L322.031 128.832L327.294 128.832L327.306 123.564Z" fill="#8D5F10"/>
<path d="M327.316 118.289L322.054 118.289L322.042 123.563L327.305 123.563L327.316 118.289Z" fill="#8D5F10"/>
<path d="M327.328 113.015L322.065 113.015L322.054 118.289L327.317 118.289L327.328 113.015Z" fill="#8D5F10"/>
<path d="M327.34 107.746L322.077 107.746L322.066 113.015L327.328 113.015L327.34 107.746Z" fill="#8D5F10"/>
<path d="M327.352 102.472L322.089 102.472L322.077 107.746L327.34 107.746L327.352 102.472Z" fill="#8D5F10"/>
<path d="M321.917 181.553L316.659 181.553L316.648 186.827L321.905 186.827L321.917 181.553Z" fill="#4C4945"/>
<path d="M321.928 176.284L316.671 176.284L316.659 181.553L321.917 181.553L321.928 176.284Z" fill="#F7EEE4"/>
<path d="M321.939 171.01L316.682 171.01L316.67 176.284L321.928 176.284L321.939 171.01Z" fill="#E0CFBF"/>
<path d="M321.951 165.741L316.693 165.741L316.682 171.01L321.939 171.01L321.951 165.741Z" fill="#E0CFBF"/>
<path d="M321.962 160.467L316.705 160.467L316.694 165.741L321.951 165.741L321.962 160.467Z" fill="#E0CFBF"/>
<path d="M321.974 155.192L316.717 155.192L316.705 160.467L321.963 160.467L321.974 155.192Z" fill="#F9761E"/>
<path d="M321.985 149.924L316.728 149.924L316.716 155.193L321.973 155.193L321.985 149.924Z" fill="#F6E4BD"/>
<path d="M321.997 144.65L316.739 144.649L316.728 149.924L321.985 149.924L321.997 144.65Z" fill="#F6E4BD"/>
<path d="M322.008 139.375L316.751 139.375L316.739 144.649L321.997 144.649L322.008 139.375Z" fill="#F2D7A2"/>
<path d="M322.02 134.107L316.763 134.106L316.751 139.375L322.009 139.375L322.02 134.107Z" fill="#F2D7A2"/>
<path d="M322.031 128.832L316.773 128.832L316.762 134.106L322.019 134.106L322.031 128.832Z" fill="#8D5F10"/>
<path d="M322.043 123.563L316.785 123.562L316.774 128.831L322.031 128.831L322.043 123.563Z" fill="#8D5F10"/>
<path d="M322.054 118.289L316.797 118.289L316.785 123.563L322.043 123.563L322.054 118.289Z" fill="#8D5F10"/>
<path d="M322.066 113.015L316.809 113.015L316.797 118.289L322.054 118.289L322.066 113.015Z" fill="#8D5F10"/>
<path d="M322.077 107.745L316.819 107.745L316.808 113.014L322.065 113.014L322.077 107.745Z" fill="#8D5F10"/>
<path d="M316.648 186.827L311.385 186.827L311.373 192.101L316.636 192.102L316.648 186.827Z" fill="#4C4945"/>
<path d="M316.659 181.553L311.396 181.553L311.385 186.827L316.648 186.827L316.659 181.553Z" fill="#4C4945"/>
<path d="M316.67 176.284L311.407 176.284L311.396 181.553L316.658 181.553L316.67 176.284Z" fill="#F7EEE4"/>
<path d="M316.682 171.01L311.419 171.01L311.407 176.284L316.67 176.284L316.682 171.01Z" fill="#F7EEE4"/>
<path d="M316.693 165.741L311.431 165.741L311.419 171.01L316.682 171.01L316.693 165.741Z" fill="#F7EEE4"/>
<path d="M316.705 160.467L311.442 160.467L311.431 165.741L316.694 165.741L316.705 160.467Z" fill="#E0CFBF"/>
<path d="M316.717 155.192L311.454 155.192L311.443 160.467L316.705 160.467L316.717 155.192Z" fill="#F9761E"/>
<path d="M316.728 149.924L311.465 149.924L311.453 155.193L316.716 155.193L316.728 149.924Z" fill="#F2D7A2"/>
<path d="M316.739 144.65L311.477 144.649L311.465 149.924L316.728 149.924L316.739 144.65Z" fill="#F2D7A2"/>
<path d="M316.751 139.375L311.488 139.375L311.477 144.649L316.74 144.649L316.751 139.375Z" fill="#F2D7A2"/>
<path d="M316.763 134.107L311.5 134.106L311.489 139.375L316.751 139.375L316.763 134.107Z" fill="#F2D7A2"/>
<path d="M316.773 128.832L311.511 128.832L311.499 134.106L316.762 134.106L316.773 128.832Z" fill="#8D5F10"/>
<path d="M316.785 123.563L311.522 123.562L311.511 128.831L316.774 128.831L316.785 123.563Z" fill="#8D5F10"/>
<path d="M316.797 118.289L311.534 118.289L311.523 123.563L316.785 123.563L316.797 118.289Z" fill="#8D5F10"/>
<path d="M316.809 113.015L311.546 113.015L311.534 118.289L316.797 118.289L316.809 113.015Z" fill="#8D5F10"/>
<path d="M316.819 107.745L311.557 107.745L311.545 113.014L316.808 113.014L316.819 107.745Z" fill="#8D5F10"/>
<path d="M311.374 192.102L306.116 192.102L306.105 197.37L311.362 197.371L311.374 192.102Z" fill="#1E1A16"/>
<path d="M311.384 186.827L306.127 186.827L306.115 192.101L311.373 192.102L311.384 186.827Z" fill="#4C4945"/>
<path d="M311.396 181.553L306.139 181.553L306.127 186.827L311.385 186.827L311.396 181.553Z" fill="#4C4945"/>
<path d="M311.408 176.284L306.15 176.284L306.139 181.553L311.396 181.553L311.408 176.284Z" fill="#F7EEE4"/>
<path d="M311.419 171.01L306.162 171.01L306.151 176.284L311.408 176.284L311.419 171.01Z" fill="#F7EEE4"/>
<path d="M311.43 165.741L306.173 165.741L306.161 171.01L311.419 171.01L311.43 165.741Z" fill="#F7EEE4"/>
<path d="M311.442 160.467L306.185 160.467L306.173 165.741L311.43 165.741L311.442 160.467Z" fill="#E0CFBF"/>
<path d="M311.454 155.192L306.196 155.192L306.185 160.467L311.442 160.467L311.454 155.192Z" fill="#F2D7A2"/>
<path d="M311.465 149.924L306.208 149.924L306.197 155.193L311.454 155.193L311.465 149.924Z" fill="#F2D7A2"/>
<path d="M311.477 144.65L306.22 144.649L306.208 149.924L311.466 149.924L311.477 144.65Z" fill="black"/>
<path d="M311.488 139.375L306.23 139.375L306.219 144.649L311.476 144.649L311.488 139.375Z" fill="black"/>
<path d="M311.5 134.106L306.242 134.105L306.231 139.374L311.488 139.374L311.5 134.106Z" fill="#F2D7A2"/>
<path d="M311.511 128.832L306.254 128.832L306.242 134.106L311.5 134.106L311.511 128.832Z" fill="#8D5F10"/>
<path d="M311.523 123.563L306.266 123.562L306.254 128.831L311.512 128.831L311.523 123.563Z" fill="#8D5F10"/>
<path d="M311.534 118.288L306.276 118.288L306.265 123.562L311.522 123.562L311.534 118.288Z" fill="#8D5F10"/>
<path d="M311.545 113.015L306.288 113.015L306.277 118.289L311.534 118.289L311.545 113.015Z" fill="#8D5F10"/>
<path d="M306.127 186.827L300.864 186.827L300.853 192.101L306.116 192.102L306.127 186.827Z" fill="#4C4945"/>
<path d="M306.139 181.553L300.876 181.553L300.864 186.827L306.127 186.827L306.139 181.553Z" fill="#4C4945"/>
<path d="M306.15 176.284L300.888 176.284L300.876 181.553L306.139 181.553L306.15 176.284Z" fill="#F7EEE4"/>
<path d="M306.162 171.01L300.899 171.01L300.888 176.284L306.151 176.284L306.162 171.01Z" fill="#D8B071"/>
<path d="M306.173 165.741L300.91 165.741L300.899 171.01L306.161 171.01L306.173 165.741Z" fill="#D8B071"/>
<path d="M306.185 160.467L300.922 160.467L300.91 165.741L306.173 165.741L306.185 160.467Z" fill="#1E1A16"/>
<path d="M306.196 155.192L300.934 155.192L300.922 160.467L306.185 160.467L306.196 155.192Z" fill="black"/>
<path d="M306.208 149.923L300.945 149.923L300.934 155.192L306.197 155.192L306.208 149.923Z" fill="#F2D7A2"/>
<path d="M306.219 144.65L300.956 144.649L300.945 149.924L306.207 149.924L306.219 144.65Z" fill="#F2D7A2"/>
<path d="M306.231 139.375L300.968 139.375L300.956 144.649L306.219 144.649L306.231 139.375Z" fill="#F2D7A2"/>
<path d="M306.242 134.106L300.979 134.105L300.968 139.374L306.231 139.374L306.242 134.106Z" fill="#F2D7A2"/>
<path d="M306.254 128.831L300.991 128.831L300.98 134.105L306.242 134.105L306.254 128.831Z" fill="#8D5F10"/>
<path d="M306.266 123.563L301.003 123.562L300.991 128.831L306.254 128.831L306.266 123.563Z" fill="#8D5F10"/>
<path d="M306.276 118.288L301.014 118.288L301.002 123.562L306.265 123.562L306.276 118.288Z" fill="#8D5F10"/>
<path d="M300.888 176.284L295.625 176.284L295.614 181.553L300.876 181.553L300.888 176.284Z" fill="#F7EEE4"/>
<path d="M300.899 171.01L295.637 171.01L295.625 176.284L300.888 176.284L300.899 171.01Z" fill="#D8B071"/>
<path d="M300.91 165.74L295.647 165.74L295.636 171.009L300.899 171.009L300.91 165.74Z" fill="#D8B071"/>
<path d="M300.934 155.192L295.671 155.192L295.659 160.467L300.922 160.467L300.934 155.192Z" fill="#1E1A16"/>
<path d="M300.945 149.923L295.683 149.923L295.671 155.192L300.934 155.192L300.945 149.923Z" fill="black"/>
<path d="M300.956 144.649L295.693 144.648L295.682 149.923L300.945 149.923L300.956 144.649Z" fill="#D8B071"/>
<path d="M300.968 139.375L295.705 139.375L295.694 144.649L300.956 144.649L300.968 139.375Z" fill="#D8B071"/>
<path d="M300.98 134.106L295.717 134.105L295.705 139.374L300.968 139.374L300.98 134.106Z" fill="black"/>
<path d="M300.991 128.831L295.729 128.831L295.717 134.105L300.98 134.105L300.991 128.831Z" fill="#8D5F10"/>
<path d="M301.002 123.563L295.739 123.562L295.728 128.831L300.991 128.831L301.002 123.563Z" fill="#8D5F10"/>
<path d="M295.728 128.831L290.471 128.831L290.459 134.105L295.717 134.105L295.728 128.831Z" fill="#8D5F10"/>
</g>
<g clip-path="url(#clip2_301_3548)">
<path d="M364.008 67.3039L355.196 67.3037L355.178 75.7806L363.99 75.7808L364.008 67.3039Z" fill="#EA1818"/>
<path d="M364.044 50.3586L355.232 50.3584L355.214 58.8353L364.026 58.8354L364.044 50.3586Z" fill="#EA1818"/>
<path d="M364.063 41.8908L355.251 41.8906L355.233 50.3588L364.044 50.359L364.063 41.8908Z" fill="#EA1818"/>
<path d="M364.081 33.4133L355.27 33.4131L355.251 41.89L364.063 41.8901L364.081 33.4133Z" fill="#EA1818"/>
<path d="M364.1 24.9367L355.288 24.9365L355.27 33.4134L364.082 33.4136L364.1 24.9367Z" fill="#EA1818"/>
<path d="M364.119 16.4689L355.307 16.4688L355.288 24.9369L364.1 24.9371L364.119 16.4689Z" fill="#EA1818"/>
<path d="M346.467 33.4133L337.655 33.4131L337.637 41.89L346.449 41.8901L346.467 33.4133Z" fill="#EA1818"/>
<path d="M346.486 24.9367L337.674 24.9365L337.655 33.4134L346.467 33.4136L346.486 24.9367Z" fill="#EA1818"/>
<path d="M337.581 67.3029L328.77 67.3027L328.751 75.7796L337.563 75.7798L337.581 67.3029Z" fill="#EA1818"/>
<path d="M337.618 50.3586L328.806 50.3584L328.787 58.8353L337.599 58.8354L337.618 50.3586Z" fill="#EA1818"/>
<path d="M337.636 41.8898L328.824 41.8896L328.806 50.3578L337.618 50.358L337.636 41.8898Z" fill="#EA1818"/>
<path d="M337.692 16.4679L328.88 16.4678L328.861 24.936L337.673 24.9361L337.692 16.4679Z" fill="#EA1818"/>
<path d="M328.861 24.9357L320.059 24.9355L320.04 33.4124L328.843 33.4126L328.861 24.9357Z" fill="#EA1818"/>
</g>
</g>
<defs>
<clipPath id="clip0_301_3548">
<rect width="40.5889" height="46.6516" fill="white" transform="matrix(1 1.96396e-05 -0.00217979 0.999998 246.724 36.5488)"/>
</clipPath>
<clipPath id="clip1_301_3548">
<rect width="63.1261" height="94.8996" fill="white" transform="matrix(1 1.96992e-05 -0.00217974 0.999998 290.528 102.471)"/>
</clipPath>
<clipPath id="clip2_301_3548">
<rect width="44.0415" height="59.3122" fill="white" transform="matrix(1 1.9677e-05 -0.00217976 0.999998 320.077 16.4678)"/>
</clipPath>
</defs>
</svg>
