<svg width="217" height="169" viewBox="0 0 217 169" fill="none" xmlns="http://www.w3.org/2000/svg">
<circle cx="81.5" cy="85.5" r="81.5" fill="#FFF9E6"/>
<path d="M204.176 114.696L198.345 44.7106H191.538L182.788 116.64L204.176 114.696Z" fill="#107393"/>
<path d="M135.166 31.748C143.933 31.748 151.04 24.6409 151.04 15.874C151.04 7.10702 143.933 0 135.166 0C126.399 0 119.292 7.10702 119.292 15.874C119.292 24.6409 126.399 31.748 135.166 31.748Z" fill="#A9CBDA"/>
<path d="M163.027 40.6608C173.137 40.6608 181.332 32.4652 181.332 22.3553C181.332 12.2455 173.137 4.04982 163.027 4.04982C152.917 4.04982 144.721 12.2455 144.721 22.3553C144.721 32.4652 152.917 40.6608 163.027 40.6608Z" fill="#A9CBDA"/>
<path d="M142.29 44.7106C149.449 44.7106 155.253 38.907 155.253 31.748C155.253 24.5889 149.449 18.7853 142.29 18.7853C135.131 18.7853 129.327 24.5889 129.327 31.748C129.327 38.907 135.131 44.7106 142.29 44.7106Z" fill="#A9CBDA"/>
<path d="M68.7751 54.1114C74.726 54.1114 79.5502 49.2872 79.5502 43.3363C79.5502 37.3854 74.726 32.5612 68.7751 32.5612C62.8242 32.5612 58 37.3854 58 43.3363C58 49.2872 62.8242 54.1114 68.7751 54.1114Z" fill="#A9CBDA"/>
<path d="M101.735 63.0161C111.845 63.0161 120.04 54.8205 120.04 44.7106C120.04 34.6008 111.845 26.4051 101.735 26.4051C91.6249 26.4051 83.4293 34.6008 83.4293 44.7106C83.4293 54.8205 91.6249 63.0161 101.735 63.0161Z" fill="#A9CBDA"/>
<path d="M81.0059 67.0659C88.165 67.0659 93.9685 61.2623 93.9685 54.1033C93.9685 46.9442 88.165 41.1406 81.0059 41.1406C73.8468 41.1406 68.0432 46.9442 68.0432 54.1033C68.0432 61.2623 73.8468 67.0659 81.0059 67.0659Z" fill="#A9CBDA"/>
<path d="M177.933 34.025C182.945 34.025 187.009 29.9617 187.009 24.9495C187.009 19.9372 182.945 15.874 177.933 15.874C172.921 15.874 168.858 19.9372 168.858 24.9495C168.858 29.9617 172.921 34.025 177.933 34.025Z" fill="#A9CBDA"/>
<path d="M193.482 38.7091C195.179 38.7091 196.556 37.3328 196.556 35.6351C196.556 33.9374 195.179 32.5612 193.482 32.5612C191.784 32.5612 190.408 33.9374 190.408 35.6351C190.408 37.3328 191.784 38.7091 193.482 38.7091Z" fill="#A9CBDA"/>
<path d="M208.713 167.832V94.6014L167.247 124.414V93.3084L124.155 123.763V93.3084L81.7134 125.382L83.0064 167.832H208.713Z" fill="#107393"/>
<path d="M98.7584 130.57V140.751H115.958V132.294L98.7584 130.57Z" fill="#D9E0A2"/>
<path d="M156.773 132.879H133.743V141.914H156.773V132.879Z" fill="#D9E0A2"/>
<path d="M174.07 132.879V143.956H195.246V130.57L174.07 132.879Z" fill="#D9E0A2"/>
<path d="M117.706 168.035V148.916L142.29 150.372V167.832L117.706 168.035Z" fill="#D9E0A2"/>
<path d="M179.803 148.916H158.522V167.832H179.803V148.916Z" fill="#D9E0A2"/>
<path d="M70.9708 167.832V158.374L77.0455 161.375L91.3012 158.471L97.1157 161.903L115.958 165.603L130.002 163.099H146.754L156.765 165.075L178.185 161.643L193.482 164.278L204.176 165.335L217 163.099V167.832H70.9708Z" fill="#2C757A"/>
</svg>
