<svg width="179" height="224" viewBox="0 0 179 224" fill="none" xmlns="http://www.w3.org/2000/svg">
<mask id="mask0_10_210" style="mask-type:alpha" maskUnits="userSpaceOnUse" x="0" y="0" width="179" height="224">
<rect width="179" height="224" fill="#D9D9D9"/>
</mask>
<g mask="url(#mask0_10_210)">
<g clip-path="url(#clip0_10_210)">
<path d="M118.16 223.453L137.618 114.004L121.86 85.2266L118.16 62.0684L154.356 50.0195L157.917 4H168.354V52.4431L177.504 82.5853L165.505 114.004L164.872 223.453H118.16Z" fill="#FFE4BF"/>
<path d="M12.9269 223.626L34.3341 130.4L29.1999 105.995L69.8874 67.8796L90.2855 79.8692L83.163 82.4412H68.6014L55.3257 105.995L74.794 125.691H83.163V132.121L58.3132 137.69L60.6973 223.626H12.9269Z" fill="#FFE4BF"/>
<path d="M74.794 84.578V125.691L155.437 120.982L151.688 74.7252L74.794 84.578Z" fill="#107393"/>
<path d="M98.7633 82.7578V66.7024H117.094L125.572 80.5617L98.7633 82.7578Z" fill="#107393"/>
<path d="M112.168 118.727C123.504 118.727 132.694 111.268 132.694 102.068C132.694 92.8674 123.504 85.409 112.168 85.409C100.831 85.409 91.6408 92.8674 91.6408 102.068C91.6408 111.268 100.831 118.727 112.168 118.727Z" fill="#D9E0A2"/>
<path d="M112.168 116.155C119.947 116.155 126.254 109.848 126.254 102.068C126.254 94.2878 119.947 87.981 112.168 87.981C104.388 87.981 98.0807 94.2878 98.0807 102.068C98.0807 109.848 104.388 116.155 112.168 116.155Z" fill="#107393"/>
<path d="M112.168 112.128C117.724 112.128 122.228 107.624 122.228 102.068C122.228 96.5115 117.724 92.0072 112.168 92.0072C106.611 92.0072 102.107 96.5115 102.107 102.068C102.107 107.624 106.611 112.128 112.168 112.128Z" fill="#D9E0A2"/>
<path d="M102.107 71.8168L103.235 79.6615H117.727L115.838 70.0461L102.107 71.8168Z" fill="#D9E0A2"/>
</g>
</g>
<defs>
<clipPath id="clip0_10_210">
<rect width="244.58" height="219.453" fill="white" transform="translate(-66 4)"/>
</clipPath>
</defs>
</svg>
