<svg width="308" height="339" viewBox="0 0 308 339" fill="none" xmlns="http://www.w3.org/2000/svg">
<path d="M214 270.068C214 307.656 183.55 338.137 146 338.137C108.45 338.137 78 307.656 78 270.068C78 232.48 108.45 202 146 202C183.55 202 214 232.48 214 270.068Z" fill="#CDE9E4"/>
<path d="M202.803 270.068C202.803 301.505 177.406 326.928 146 326.928C114.594 326.928 89.1968 301.505 89.1968 270.068C89.1968 238.631 114.594 213.208 146 213.208C177.406 213.071 202.803 238.631 202.803 270.068Z" fill="#FFF9E6"/>
<path d="M189.422 257.357C189.422 257.357 187.1 261.321 182.048 262.961C176.996 264.601 163.068 268.018 163.068 268.428C163.068 268.838 162.249 274.169 171.534 277.039C180.956 279.909 197.614 275.126 197.478 267.608C197.341 260.09 195.293 255.58 193.518 255.033C191.606 254.486 189.422 257.357 189.422 257.357Z" fill="#107393"/>
<path d="M192.425 259.544C192.425 262.004 195.156 268.702 189.421 270.752C183.686 272.666 175.084 274.579 172.899 272.939C170.715 271.299 165.799 269.659 165.799 269.659L165.116 270.615L170.032 273.759L177.815 275.399L188.056 272.119L192.972 269.795L194.337 263.508L192.425 259.544Z" fill="#FFF9E6"/>
<path d="M171.807 237.948C171.807 237.948 171.125 242.595 167.165 246.012C163.069 249.429 151.462 257.904 151.735 258.314C151.872 258.724 153.101 263.918 162.932 262.961C172.49 262.141 186.008 251.206 183.004 244.372C180 237.538 176.314 234.121 174.538 234.394C172.763 234.531 171.807 237.948 171.807 237.948Z" fill="#107393"/>
<path d="M175.357 238.904C176.313 241.228 181.365 246.422 176.859 250.386C172.353 254.35 165.116 259.407 162.385 258.723C159.654 258.04 154.602 258.313 154.602 258.313L154.329 259.407L160.064 260.5L167.847 258.997L176.04 252.026L179.727 247.925L178.634 241.638L175.357 238.904Z" fill="#FFF9E6"/>
<path d="M147.093 227.97C147.093 227.97 149.141 232.071 147.775 237.265C146.41 242.459 141.631 255.99 141.904 256.127C142.313 256.4 146.273 259.954 153.783 253.667C161.293 247.379 166.346 230.704 160.064 226.74C153.647 222.776 148.731 221.956 147.366 223.186C146 224.553 147.093 227.97 147.093 227.97Z" fill="#107393"/>
<path d="M150.643 226.604C152.691 227.97 159.791 229.337 158.289 235.215C156.787 241.092 153.783 249.293 151.189 250.25C148.594 251.207 144.498 254.35 144.498 254.35L144.908 255.444L150.233 252.983L155.831 247.243L158.699 236.855L159.382 231.387L154.876 226.74L150.643 226.604Z" fill="#FFF9E6"/>
<path d="M118.144 236.308C118.144 236.308 122.241 238.495 124.152 243.415C126.064 248.336 130.297 262.141 130.707 262.141C131.116 262.141 136.442 262.687 138.763 253.12C141.084 243.552 135.349 227.15 127.839 227.833C120.329 228.38 115.96 230.704 115.55 232.48C115.277 234.257 118.144 236.308 118.144 236.308Z" fill="#107393"/>
<path d="M120.193 233.163C122.651 233.027 129.205 230.02 131.526 235.487C133.847 240.954 136.169 249.566 134.667 251.889C133.165 254.213 131.799 259.133 131.799 259.133L132.755 259.817L135.623 254.759L136.715 246.832L132.892 236.717L130.297 231.933L124.016 230.977L120.193 233.163Z" fill="#FFF9E6"/>
<path d="M102.988 265.968C102.988 265.968 107.494 264.874 112.273 267.334C117.052 269.795 129.205 277.449 129.478 277.176C129.751 276.902 134.257 273.759 129.615 265.011C125.109 256.263 109.952 247.789 104.763 253.119C99.5745 258.45 97.7994 263.097 98.6187 264.737C99.4379 266.378 102.988 265.968 102.988 265.968Z" fill="#107393"/>
<path d="M102.442 262.277C104.217 260.5 107.084 253.94 112.546 256.673C118.008 259.407 125.382 264.191 125.655 266.925C126.064 269.658 128.249 274.305 128.249 274.305L129.341 274.169L128.113 268.428L123.743 261.731L114.185 256.673L108.996 254.76L103.534 258.177L102.442 262.277Z" fill="#FFF9E6"/>
<path d="M114.867 299.181C114.867 299.181 117.052 295.081 121.968 293.167C127.02 291.254 140.675 287.153 140.675 286.743C140.675 286.333 141.221 281.003 131.799 278.542C122.241 276.219 105.855 281.823 106.401 289.34C106.948 296.858 109.269 301.232 111.044 301.642C112.819 302.052 114.867 299.181 114.867 299.181Z" fill="#107393"/>
<path d="M111.727 297.132C111.59 294.671 108.586 288.11 114.185 285.787C119.783 283.6 128.249 281.14 130.57 282.78C132.891 284.283 137.807 285.787 137.807 285.787L138.49 284.83L133.438 281.96L125.518 280.729L115.413 284.557L110.634 287.154L109.542 293.441L111.727 297.132Z" fill="#FFF9E6"/>
<path d="M131.117 324.605C131.117 324.605 129.751 320.094 132.072 315.311C134.394 310.527 141.494 297.952 141.085 297.678C140.811 297.405 137.534 293.168 128.932 297.952C120.466 302.872 112.546 318.318 118.145 323.375C123.743 328.432 128.386 329.936 130.024 328.979C131.663 328.022 131.117 324.605 131.117 324.605Z" fill="#107393"/>
<path d="M127.43 325.152C125.655 323.512 118.964 320.915 121.422 315.448C123.879 309.98 128.385 302.326 131.116 301.916C133.847 301.369 138.353 299.046 138.353 299.046L138.217 297.952L132.482 299.319L125.928 303.966L121.285 313.671L119.646 318.865L123.333 324.195L127.43 325.152Z" fill="#FFF9E6"/>
<path d="M164.707 312.85C164.707 312.85 160.747 310.526 158.972 305.469C157.333 300.412 153.92 286.47 153.51 286.47C153.101 286.47 147.775 285.65 144.908 295.081C142.04 304.512 146.956 321.188 154.466 320.914C161.976 320.778 166.482 318.727 166.892 316.814C167.301 314.9 164.707 312.85 164.707 312.85Z" fill="#107393"/>
<path d="M162.522 315.857C160.064 315.857 153.374 318.591 151.326 312.85C149.414 307.109 147.366 298.498 149.004 296.311C150.643 294.125 152.281 289.204 152.281 289.204L151.326 288.521L148.185 293.441L146.546 301.232L149.823 311.483L152.145 316.404L158.426 317.771L162.522 315.857Z" fill="#FFF9E6"/>
<path d="M185.599 288.657C185.599 288.657 181.092 289.888 176.313 287.564C171.534 285.24 159.109 278.133 158.835 278.406C158.562 278.679 154.193 281.96 159.109 290.571C163.888 299.182 179.317 307.11 184.37 301.506C189.422 295.902 191.06 291.254 190.105 289.751C189.149 288.111 185.599 288.657 185.599 288.657Z" fill="#107393"/>
<path d="M186.281 292.348C184.506 294.125 181.911 300.822 176.45 298.362C170.988 295.901 163.478 291.254 162.932 288.521C162.522 285.787 160.064 281.276 160.064 281.276L158.972 281.413L160.337 287.154L164.843 293.715L174.538 298.498L179.727 300.139L185.052 296.585L186.281 292.348Z" fill="#FFF9E6"/>
<path d="M158 126.068C158 165.863 125.951 198.137 86.4321 198.137C46.9136 198.137 15 165.863 15 126.068C15 86.2735 47.0494 54 86.5679 54C126.086 54 158 86.2735 158 126.068Z" fill="#CDE9E4"/>
<path d="M145.235 124.838C145.235 157.385 118.889 183.915 86.5681 183.915C54.2471 183.915 27.7656 157.385 27.7656 124.838C27.7656 92.1539 54.1113 65.7607 86.4323 65.7607C118.753 65.7607 145.235 92.1539 145.235 124.838Z" fill="#FFF9E6"/>
<path d="M19.0742 68.7696C19.0742 68.7696 58.7285 53.1799 76.7902 68.7696C94.8519 84.3593 118.346 134.958 118.346 134.958C118.346 134.958 141.296 121.282 156.235 131.539L133.556 190.205L112.778 161.898C112.778 161.898 72.8519 165.453 42.2964 146.855C11.8766 128.257 19.0742 68.7696 19.0742 68.7696Z" fill="#107393"/>
<path d="M32.3828 126.068L96.4816 83.1279L99.8766 84.6322L34.284 130.307L32.3828 126.068Z" fill="#D9E0A2"/>
<path d="M26.6792 142.205L90.6422 99.2646L94.0372 100.769L28.4446 146.581L26.6792 142.205Z" fill="#D9E0A2"/>
<path d="M49.9014 142.205L114 99.2646L117.259 100.769L51.6668 146.581L49.9014 142.205Z" fill="#D9E0A2"/>
<path d="M69.5928 165.18L90.3705 129.214L92.2718 129.351L71.494 167.231L69.5928 165.18Z" fill="#D9E0A2"/>
<path d="M62.5308 92.7007L74.753 74.6494L76.6542 85.0426L64.1604 101.59L62.5308 92.7007Z" fill="#D9E0A2"/>
<path d="M101.914 129.35L114.136 111.299L116.173 121.692L103.543 138.239L101.914 129.35Z" fill="#D9E0A2"/>
<path d="M276.931 178.644C260.165 203.193 226.482 209.427 201.775 192.553C177.067 175.679 170.617 142.037 187.382 117.488C204.148 92.9381 237.831 86.7042 262.539 103.578C287.247 120.452 293.79 153.959 276.931 178.644Z" fill="#CDE9E4"/>
<path d="M266.966 171.839C253.905 190.963 227.876 195.662 208.765 182.61C189.518 169.465 184.652 143.469 197.62 124.48C210.681 105.356 236.71 100.657 255.821 113.709C275.024 126.625 280.027 152.715 266.966 171.839Z" fill="#FFF8E7"/>
<path d="M190.916 213.695C190.916 213.695 219.502 177.918 219.656 168.449C219.81 158.98 207.359 144.369 222.711 129.432C238.099 114.685 244.649 98.5247 252.378 105.453C259.993 112.305 282.279 112.999 273.876 132.846C265.358 152.615 254.955 166.145 242.461 170.817C229.966 175.49 233.454 166.977 225.636 175.505C217.629 184.067 192.858 217.662 192.858 217.662L190.916 213.695Z" fill="#2C757A"/>
<path d="M186.396 209.122C186.396 209.122 214.833 173.078 214.91 163.722C215.064 154.252 202.423 139.677 217.774 124.74C233.126 109.803 239.486 93.6777 247.292 100.494C254.907 107.345 277.27 107.927 268.866 127.774C260.463 147.62 250.173 161.227 237.678 165.9C225.183 170.573 228.671 162.06 220.777 170.7C212.883 179.34 188.225 213.012 188.225 213.012L186.396 209.122Z" fill="#D9E0A2"/>
<path d="M189.807 209.966C189.807 209.966 212.049 169.857 210.568 160.591C209.164 151.214 194.379 138.806 207.015 121.519C219.652 104.232 223.475 87.2001 232.126 92.778C240.854 98.2433 263.019 95.2229 257.986 116.216C252.952 137.209 245.006 152.251 233.482 158.908C221.958 165.564 224.083 156.615 217.584 166.374C211.276 176.097 192.36 213.525 192.36 213.525L189.807 209.966Z" fill="#2C757A"/>
<path d="M238.997 102.423L214.282 161.478L217.742 156.412L238.997 102.423Z" fill="#D9E0A2"/>
<path d="M227.271 105.97L233.11 116.395L246.252 111.504L232.414 117.901L227.271 105.97Z" fill="#D9E0A2"/>
<path d="M220.044 116.551L227.749 131.057L241.38 126.665L226.587 133.73L220.044 116.551Z" fill="#D9E0A2"/>
<path d="M214.934 128.413L222.448 142.954L236.27 138.528L221.477 145.592L214.934 128.413Z" fill="#D9E0A2"/>
<g clip-path="url(#clip0_25_5819)">
<path d="M230.5 41.8C230.5 64.9 211.8 83.6 188.7 83.6C165.7 83.5 147 64.8 147 41.8C147 18.7 165.7 0 188.8 0C211.8 0 230.5 18.7 230.5 41.8Z" fill="#CDE9E4"/>
<path d="M224.5 41.7996C224.5 61.4996 208.5 77.4996 188.8 77.4996C169.1 77.4996 153.1 61.4996 153.1 41.7996C153.1 22.0996 169.1 6.09961 188.8 6.09961C208.5 6.09961 224.5 22.0996 224.5 41.7996Z" fill="#FFF8E7"/>
<path d="M196.6 16.7002L159.7 40.1002L187 72.0002L224.5 48.5002L196.6 16.7002Z" fill="#107393"/>
<path d="M206.7 21.9004L165.1 52.3004L167.4 55.1004L207.8 23.0004L206.7 21.9004Z" fill="#D9E0A2"/>
<path d="M215.1 32.5L173.5 62.9L175.7 65.7L216.2 33.7L215.1 32.5Z" fill="#D9E0A2"/>
<path d="M181.3 24.0996L178.6 25.4996L203.7 63.3996L205.9 62.1996L181.3 24.0996Z" fill="#D9E0A2"/>
</g>
<path d="M79 244.5C79 266.312 61.3123 284 39.5 284C17.6878 284 0 266.312 0 244.5C0 222.688 17.6878 205 39.5 205C61.3123 205 79 222.688 79 244.5Z" fill="#CDE9E4"/>
<path d="M73 244.068C73 262.798 57.7984 278.136 38.9321 278.136C20.2016 278 5 262.798 5 244.068C5 225.202 20.2016 210 39.0679 210C57.7984 210 73 225.202 73 244.068Z" fill="#FFF9E6"/>
<path d="M51.8263 241.489L38.2534 254.383C37.439 255.197 37.439 256.419 38.1177 257.233L47.483 267.82C48.2973 268.634 49.6546 268.77 50.469 267.956L64.3133 254.247C65.1277 253.433 65.1277 252.211 64.3133 251.397L54.6766 241.624C53.8622 240.81 52.6406 240.674 51.8263 241.489Z" fill="#2C757A"/>
<path d="M42.5968 237.553L29.0239 250.447C28.2096 251.261 28.2096 252.483 28.8882 253.297L38.2535 263.884C39.0678 264.698 40.4251 264.834 41.2395 264.02L55.0838 250.311C55.8982 249.497 55.8982 248.275 55.0838 247.461L45.4471 237.688C44.6327 236.874 43.4111 236.874 42.5968 237.553Z" fill="#D9E0A2"/>
<path d="M35.9459 233.752L22.373 246.646C21.5587 247.461 21.5587 248.682 22.2373 249.497L31.6026 260.083C32.417 260.898 33.7742 261.034 34.5886 260.219L48.4329 246.375C49.2473 245.561 49.2473 244.339 48.4329 243.525L38.7962 233.752C37.9818 233.074 36.7603 233.074 35.9459 233.752Z" fill="#2C757A"/>
<path d="M26.8521 229.681L13.2793 242.575C12.4649 243.389 12.4649 244.611 13.1436 245.425L22.5088 256.012C23.3232 256.826 24.6805 256.962 25.4949 256.148L39.3392 242.439C40.1535 241.625 40.1535 240.403 39.3392 239.589L29.7024 229.816C28.8881 229.002 27.6665 229.002 26.8521 229.681Z" fill="#D9E0A2"/>
<path d="M26.8521 218.144L13.2793 231.038C12.4649 231.717 12.4649 232.938 13.1436 233.753L22.5088 244.34C23.3232 245.154 24.6805 245.29 25.4949 244.475L39.3392 230.767C40.1535 229.952 40.1535 228.731 39.3392 227.916L29.7024 218.144C28.8881 217.33 27.6665 217.33 26.8521 218.144Z" fill="#2C757A"/>
<defs>
<clipPath id="clip0_25_5819">
<rect width="83.5" height="83.5" fill="white" transform="translate(147)"/>
</clipPath>
</defs>
</svg>
